<svg width="73" height="67" viewBox="0 0 73 67" fill="none" xmlns="http://www.w3.org/2000/svg">
<rect width="73" height="67" rx="10" fill="#FDE635"/>
<path d="M10.7559 8.86548H62.5318V56.0335H10.7559V8.86548Z" fill="#FDE635"/>
<path d="M20.3872 49.2718L25.0344 46.691C25.9308 48.1503 26.747 49.3844 28.7034 49.3844C30.578 49.3844 31.7606 48.7144 31.7606 46.092V28.2834H37.4677V46.1657C37.4677 51.59 34.0032 54.0597 28.9486 54.0597C27.1618 54.1484 25.3874 53.7383 23.8594 52.8834C22.3315 52.0286 21.1214 50.7689 20.3887 49.2705L20.3872 49.2718ZM40.5688 48.709L45.216 46.2394C45.7327 47.2015 46.5346 48.0102 47.5298 48.5728C48.5249 49.1353 49.6728 49.4286 50.8414 49.4193C53.2066 49.4193 54.7133 48.3338 54.7133 46.8371C54.7133 45.0415 53.1642 44.405 50.5552 43.3531L49.1331 42.7983C45.0159 41.1903 42.2843 39.1696 42.2843 34.9044C42.2843 30.9755 45.5459 27.9833 50.6413 27.9833C52.2923 27.8734 53.9421 28.2123 55.3846 28.9575C56.8272 29.7026 57.9987 30.8211 58.7531 32.1734L54.3089 34.7931C54.0171 34.1218 53.5101 33.5478 52.8548 33.147C52.1996 32.746 51.4272 32.5374 50.6399 32.5487C50.2966 32.5168 49.9499 32.5509 49.6218 32.6489C49.2938 32.747 48.9917 32.9067 48.7346 33.1179C48.4776 33.3291 48.2713 33.5871 48.129 33.8755C47.9868 34.164 47.9116 34.4765 47.9082 34.7931C47.9082 36.365 48.9682 37.0001 51.4122 37.973L52.8386 38.5344C57.6902 40.4426 60.4204 42.3883 60.4204 46.7647C60.4204 51.4788 56.385 54.061 50.964 54.061C45.6642 54.061 42.2405 51.7415 40.5688 48.7104" fill="black"/>
</svg>
