<svg width="73" height="67" viewBox="0 0 73 67" fill="none" xmlns="http://www.w3.org/2000/svg">
<rect width="73" height="67" rx="10" fill="#1E2E3B"/>
<path d="M16.0855 21.5621C11.9792 27.3245 12.4904 34.8214 15.6272 40.9441C15.7018 41.0908 15.78 41.2353 15.8569 41.3797C15.9062 41.4713 15.9525 41.5653 16.0036 41.6557C16.0325 41.7097 16.0649 41.7626 16.095 41.8142C16.1486 41.9117 16.2034 42.0045 16.2587 42.0996C16.3561 42.2675 16.4559 42.4343 16.5581 42.601C16.6146 42.6927 16.6706 42.7842 16.729 42.8759C16.842 43.0543 16.958 43.2304 17.0766 43.4066C17.1259 43.4818 17.174 43.557 17.2245 43.6297C17.3881 43.8681 17.5553 44.1053 17.7279 44.339C17.7321 44.345 17.7368 44.352 17.7422 44.3578C17.7694 44.3953 17.7994 44.4317 17.827 44.4694C17.9762 44.6701 18.1301 44.8686 18.2859 45.0648C18.343 45.1363 18.4008 45.208 18.4585 45.2795C18.5975 45.4499 18.7388 45.619 18.8825 45.7881C18.936 45.8515 18.9901 45.9148 19.0442 45.9772C19.2372 46.1991 19.4339 46.4199 19.6348 46.6359C19.6384 46.6392 19.6433 46.6442 19.6468 46.6477C19.6552 46.6571 19.6624 46.663 19.6697 46.6723C19.8658 46.8813 20.0665 47.0856 20.2699 47.29C20.333 47.3535 20.3974 47.4168 20.4623 47.479C20.6199 47.6341 20.7799 47.7867 20.9416 47.9382C21.0072 47.9992 21.0722 48.0615 21.1377 48.1202C21.3535 48.3187 21.5718 48.5136 21.7944 48.7039C21.7981 48.7073 21.801 48.7099 21.8046 48.7121C21.8425 48.7451 21.8816 48.7755 21.9188 48.8072C22.1149 48.9729 22.3146 49.1373 22.5154 49.2993C22.5971 49.3639 22.6802 49.4273 22.7626 49.4918C22.9268 49.6199 23.0928 49.7467 23.26 49.8712C23.3483 49.937 23.4368 50.0026 23.5257 50.0684C23.7104 50.2012 23.8962 50.3315 24.0839 50.4596C24.1523 50.5077 24.2185 50.5546 24.2871 50.6004C24.3064 50.6134 24.3237 50.6263 24.343 50.6391C24.521 50.7589 24.7032 50.8741 24.8848 50.9892C24.9631 51.0397 25.0406 51.0925 25.1194 51.1418C25.3984 51.3144 25.6817 51.4847 25.968 51.6491C26.0455 51.6927 26.1243 51.7349 26.2025 51.7783C26.413 51.8969 26.6247 52.0132 26.8393 52.1271C26.9554 52.1882 27.0745 52.2457 27.1918 52.3044C27.3433 52.382 27.4937 52.4606 27.6476 52.5358C27.6825 52.5523 27.7185 52.5686 27.7528 52.5851C27.8147 52.6144 27.8774 52.6426 27.9393 52.6731C28.178 52.7846 28.4186 52.8938 28.6615 52.9996C28.7134 53.0219 28.7632 53.0442 28.8144 53.0666C29.0928 53.1851 29.3736 53.299 29.6568 53.4083C29.7249 53.4352 29.7933 53.4611 29.8619 53.4869C30.1242 53.5855 30.39 53.6831 30.6569 53.7746C30.6906 53.7864 30.7232 53.797 30.7568 53.8087C31.0497 53.9085 31.3456 54.0012 31.6433 54.0917C31.7143 54.1116 31.7858 54.1339 31.8573 54.1538C32.1604 54.2431 32.46 54.35 32.7726 54.4064C52.6317 57.9423 58.4001 42.7546 58.4001 42.7546C53.5554 48.9171 44.9556 50.5425 36.8075 48.733C36.499 48.6648 36.1995 48.5709 35.8982 48.484C35.8218 48.4616 35.7466 48.4394 35.6714 48.417C35.3774 48.329 35.0857 48.2363 34.7959 48.1387C34.7562 48.1246 34.7159 48.1106 34.6756 48.0965C34.4158 48.0073 34.159 47.9133 33.9034 47.817C33.8312 47.7888 33.7591 47.7618 33.6869 47.7336C33.4067 47.6256 33.1283 47.5128 32.8533 47.3954C32.7968 47.3718 32.7427 47.3472 32.6868 47.3237C32.4505 47.2192 32.2165 47.1136 31.9838 47.0044C31.9165 46.9726 31.849 46.9421 31.7805 46.9093C31.5977 46.8222 31.417 46.7293 31.2367 46.6388C31.1159 46.5768 30.9933 46.5181 30.8736 46.4533C30.6533 46.3383 30.437 46.2185 30.2217 46.0963C30.1488 46.0563 30.075 46.0179 30.0015 45.9766C29.7154 45.8121 29.4326 45.6418 29.1527 45.4692C29.0753 45.4211 29 45.3696 28.9236 45.32C28.7207 45.192 28.5186 45.0617 28.3196 44.9279C28.2536 44.8843 28.1901 44.8375 28.125 44.7942C27.9328 44.6615 27.7428 44.5273 27.554 44.3911C27.4683 44.3291 27.384 44.2666 27.3008 44.2046C27.1278 44.0752 26.956 43.9448 26.7854 43.811C26.7085 43.7511 26.6316 43.6912 26.5558 43.6315C26.3393 43.4577 26.1252 43.2827 25.9141 43.103C25.8918 43.0842 25.8677 43.0655 25.8437 43.0455C25.6152 42.8493 25.3908 42.6486 25.1689 42.4465C25.1045 42.3866 25.0421 42.3279 24.979 42.268C24.8147 42.1154 24.653 41.9616 24.4943 41.8043C24.4305 41.742 24.3667 41.6808 24.3042 41.6187C24.1021 41.4167 23.9037 41.2124 23.7094 41.0045C23.6997 40.994 23.6895 40.9846 23.6799 40.974C23.4743 40.7544 23.2734 40.5301 23.0767 40.3035C23.0232 40.2413 22.9715 40.1814 22.9186 40.1203C22.7719 39.9477 22.6263 39.7727 22.4844 39.5965C22.4311 39.533 22.378 39.4681 22.3253 39.4027C22.1543 39.1862 21.9873 38.9703 21.8238 38.7509C17.3 32.7263 15.6748 24.4171 19.2905 17.5931" fill="#0868AC"/>
<path d="M28.5553 16.8116C25.526 21.0142 25.6904 26.6398 28.0535 31.0845C28.4498 31.8298 28.8952 32.5525 29.3934 33.2408C29.8473 33.8677 30.3504 34.614 30.9528 35.118C31.1712 35.3498 31.3994 35.5758 31.6326 35.7981C31.6914 35.8561 31.7516 35.9117 31.8117 35.9684C32.038 36.1801 32.2681 36.3883 32.5061 36.5905C32.5159 36.5976 32.5245 36.6072 32.5343 36.6143C32.5369 36.6167 32.5394 36.6176 32.541 36.6203C32.8042 36.8427 33.0759 37.0569 33.3522 37.2674C33.4135 37.3123 33.4742 37.3596 33.5361 37.4057C33.8128 37.6103 34.095 37.8114 34.3845 38.003C34.3932 38.0091 34.4006 38.0148 34.4092 38.0207C34.5368 38.1059 34.6668 38.1851 34.7963 38.2667C34.8582 38.3059 34.9172 38.3473 34.9796 38.3839C35.1865 38.5116 35.3956 38.6358 35.6085 38.7553C35.6387 38.773 35.668 38.7884 35.6975 38.8049C35.8809 38.9066 36.0668 39.0072 36.2533 39.1042C36.3183 39.1396 36.3846 39.1704 36.4509 39.2035C36.5797 39.2687 36.7086 39.3349 36.8398 39.3976C36.8594 39.4069 36.8797 39.4153 36.8987 39.4236C37.1656 39.5502 37.4349 39.672 37.7097 39.7879C37.7685 39.8127 37.8294 39.8352 37.8888 39.8589C38.1084 39.9487 38.3306 40.0363 38.5539 40.1192C38.6483 40.1535 38.744 40.1866 38.8386 40.2197C39.0409 40.2918 39.244 40.3581 39.449 40.4243C39.5416 40.4527 39.6324 40.4822 39.7249 40.5094C40.0163 40.597 40.3041 40.707 40.6078 40.7554C56.2492 43.2536 59.8602 31.6442 59.8602 31.6442C56.6052 36.1638 50.3013 38.3199 43.5745 36.6369C43.2757 36.5612 42.9812 36.4784 42.6886 36.3897C42.5991 36.3637 42.5113 36.3353 42.4223 36.3069C42.2144 36.2417 42.0076 36.1731 41.8027 36.101C41.7089 36.0679 41.615 36.0348 41.5229 36.0005C41.2984 35.9177 41.0763 35.8313 40.8561 35.7415C40.796 35.7166 40.7353 35.6942 40.6764 35.6681C40.4003 35.5522 40.1285 35.4304 39.8604 35.3027C39.7225 35.2375 39.5868 35.1689 39.4512 35.1015C39.3728 35.0625 39.2935 35.0235 39.2151 34.9844C39.0408 34.8934 38.8678 34.7987 38.6972 34.7029C38.6568 34.6805 38.6145 34.6592 38.5733 34.6355C38.3617 34.5161 38.1531 34.3931 37.9464 34.2664C37.8826 34.2275 37.8211 34.1848 37.7573 34.1446C37.6212 34.0595 37.485 33.9731 37.3513 33.8856C37.0629 33.694 36.7826 33.4929 36.5059 33.2894C36.4421 33.2409 36.3783 33.1936 36.3157 33.1451C33.3712 30.904 31.0372 27.8415 29.9275 24.3688C28.7646 20.7672 29.0154 16.7241 31.0302 13.4431" fill="#0868AC"/>
<path d="M39.4667 13.7671C37.697 16.2016 37.5231 19.225 38.7511 21.914C40.046 24.7679 42.6996 27.0071 45.7962 28.0685C45.924 28.1129 46.0516 28.1527 46.1811 28.1935C46.2376 28.2095 46.2935 28.2277 46.3507 28.2435C46.5331 28.297 46.7143 28.3594 46.9028 28.3924C55.4608 29.9382 57.7819 24.287 58.4 23.4553C56.3665 26.1922 52.9493 26.8491 48.7567 25.8978C48.4255 25.8224 48.0616 25.7108 47.7423 25.605C47.333 25.4686 46.9296 25.3132 46.5376 25.1371C45.7932 24.8029 45.0834 24.3969 44.4257 23.9323C40.6737 21.2714 38.3431 16.1945 40.7912 12.0601" fill="#0868AC"/>
</svg>
