<svg width="73" height="66" viewBox="0 0 73 66" fill="none" xmlns="http://www.w3.org/2000/svg">
<rect width="73" height="66" rx="10" fill="#00758F"/>
<path d="M53 21.4286V24.1964C53 26.6356 45.6094 28.625 36.5 28.625C27.3906 28.625 20 26.6356 20 24.1964V21.4286C20 18.9894 27.3906 17 36.5 17C45.6094 17 53 18.9894 53 21.4286ZM53 27.6562V33.8839C53 36.3231 45.6094 38.3125 36.5 38.3125C27.3906 38.3125 20 36.3231 20 33.8839V27.6562C23.5449 29.663 30.0332 30.5971 36.5 30.5971C42.9668 30.5971 49.455 29.663 53 27.6562ZM53 37.3438V43.5714C53 46.0106 45.6094 48 36.5 48C27.3906 48 20 46.0106 20 43.5714V37.3438C23.5449 39.3505 30.0332 40.2846 36.5 40.2846C42.9668 40.2846 49.455 39.3505 53 37.3438Z" fill="white"/>
</svg>
