<svg width="73" height="67" viewBox="0 0 73 67" fill="none" xmlns="http://www.w3.org/2000/svg">
<path d="M0 10C0 4.47715 4.47715 0 10 0H63C68.5229 0 73 4.47715 73 10V57C73 62.5228 68.5229 67 63 67H10C4.47715 67 0 62.5228 0 57V10Z" fill="black"/>
<path d="M21.0797 25.8078H32.0945V26.607H22.0895V32.6215H31.4978V33.4206H22.0895V40.024H32.2093V40.8231H21.0797V25.8078ZM33.0812 25.8078H34.2516L39.4378 32.4112L44.7386 25.8078L51.9487 17.42L40.1032 33.1051L46.2072 40.8231H44.991L39.4378 33.7991L33.8614 40.8231H32.6682L38.8181 33.1051L33.0812 25.8078ZM46.6432 26.607V25.8078H59.1955V26.607H53.4127V40.8231H52.403V26.607H46.6432ZM7.2998 25.8078H8.56192L25.9656 49.58L18.7735 40.8231L8.35538 26.9434L8.3095 40.8231H7.2998V25.8078ZM59.0937 39.7828C58.8875 39.7828 58.7327 39.637 58.7327 39.4483C58.7327 39.2598 58.8875 39.114 59.0937 39.114C59.3025 39.114 59.4547 39.2598 59.4547 39.4483C59.4547 39.637 59.3025 39.7828 59.0937 39.7828ZM60.0858 38.9029H60.6262C60.6335 39.17 60.8472 39.3495 61.1615 39.3495C61.5127 39.3495 61.7117 39.1566 61.7117 38.7952V36.5057H62.2617V38.7975C62.2617 39.4483 61.8491 39.8232 61.1664 39.8232C60.5254 39.8232 60.0858 39.4596 60.0858 38.9029ZM62.9813 38.8737H63.5265C63.573 39.1812 63.9021 39.3765 64.3762 39.3765C64.8181 39.3765 65.1424 39.1678 65.1424 38.8805C65.1424 38.6336 64.9361 38.4854 64.467 38.3845L64.0103 38.2834C63.3692 38.1465 63.0771 37.8638 63.0771 37.3878C63.0771 36.8111 63.5927 36.4271 64.3662 36.4271C65.0859 36.4271 65.6113 36.8111 65.6433 37.3564H65.1079C65.0564 37.0579 64.7715 36.8716 64.3589 36.8716C63.9243 36.8716 63.6345 37.0624 63.6345 37.3542C63.6345 37.5853 63.8211 37.7178 64.2829 37.8166L64.6733 37.9041C65.4002 38.059 65.6998 38.3283 65.6998 38.8154C65.6998 39.4349 65.1742 39.8232 64.3344 39.8232C63.5485 39.8232 63.0206 39.4529 62.9813 38.8737Z" fill="#F2F2F2"/>
</svg>
