<svg width="73" height="66" viewBox="0 0 73 66" fill="none" xmlns="http://www.w3.org/2000/svg">
<rect width="73" height="66" rx="10" fill="#8892BF"/>
<path d="M37 18.5472C51.9975 18.5472 63.53 25.1967 63.53 32.5C63.53 39.8033 51.9887 46.4528 37 46.4528C22.0025 46.4528 10.47 39.8033 10.47 32.5C10.47 25.1967 22.0112 18.5472 37 18.5472ZM37 17C21.5388 17 9 23.9349 9 32.5C9 41.0651 21.5388 48 37 48C52.4612 48 65 41.0651 65 32.5C65 23.9349 52.4612 17 37 17ZM28.0925 31.2567C27.4012 34.9866 24.96 34.5998 21.9588 34.5998L23.1575 28.0977C26.4825 28.0977 28.74 27.7201 28.0925 31.2567ZM17.5225 41.1848H20.7338L21.495 37.0588C25.0912 37.0588 27.3225 37.3351 29.3875 35.2998C31.6712 33.0894 32.2662 29.1569 30.6387 27.186C29.79 26.1545 28.425 25.648 26.57 25.648H20.3838L17.5225 41.1848ZM33.7713 21.5128H36.965L36.2037 25.6387C38.96 25.6387 41.515 25.4269 42.7488 26.6242C44.0438 27.8767 43.4225 29.4792 42.0225 37.0404H38.785C40.1325 29.7279 40.3862 29.12 39.8963 28.5674C39.4238 28.0333 38.3475 28.1438 35.7488 28.1438L34.1037 37.0404H30.91L33.7713 21.5128V21.5128ZM53.1875 31.2567C52.4875 35.0419 49.9762 34.5998 47.0537 34.5998L48.2525 28.0977C51.595 28.0977 53.835 27.7201 53.1875 31.2567V31.2567ZM42.6175 41.1848H45.8375L46.5988 37.0588C50.3788 37.0588 52.47 37.2891 54.4913 35.2998C56.775 33.0894 57.37 29.1569 55.7425 27.186C54.8938 26.1545 53.5288 25.648 51.6738 25.648H45.4875L42.6175 41.1848V41.1848Z" fill="white"/>
</svg>
