<svg width="73" height="66" viewBox="0 0 73 66" fill="none" xmlns="http://www.w3.org/2000/svg">
<path d="M0 10C0 4.47715 4.47715 0 10 0H63C68.5229 0 73 4.47715 73 10V56C73 61.5229 68.5229 66 63 66H10C4.47715 66 0 61.5228 0 56V10Z" fill="#3BC0DD"/>
<path d="M37.9219 49.0342C37.4839 48.6627 37.0269 48.29 36.5903 47.8772C36.2414 48.1865 35.9144 48.4764 35.5683 48.7649C31.2482 52.3367 26.7952 53.8237 24.1555 52.3781C21.602 50.9948 20.7975 46.9079 21.8195 41.7664C21.9286 41.2091 22.0594 40.6517 22.2123 40.0944C21.7538 39.965 21.3173 39.8459 20.8807 39.7061C15.4452 37.9268 11.8667 35.0369 11.8667 32.146C11.8667 29.3597 15.2057 26.6549 20.4208 24.9208C21.0048 24.7344 21.621 24.5495 22.2546 24.3839C22.1086 23.8467 21.9933 23.3304 21.8838 22.8309C20.7917 17.6117 21.5553 13.442 24.1307 12.0379C26.8142 10.551 31.2672 12.1414 35.7392 15.8775C36.0005 16.104 36.2633 16.3524 36.5465 16.5997C36.9612 16.2282 37.3539 15.8569 37.7686 15.5269C42.0026 12.0327 46.2132 10.5717 48.7886 11.9758C51.4721 13.4201 52.2591 17.8796 51.0589 23.3925C50.9932 23.7444 50.9129 24.0744 50.8195 24.4278C51.3655 24.5727 51.9101 24.7371 52.4124 24.9027C57.737 26.6368 61.1855 29.3415 61.1417 32.1899C61.1417 35.1004 57.4537 37.9707 51.7977 39.7463C51.4926 39.829 51.1874 39.9327 50.8808 40.0141C51.0122 40.427 51.0984 40.8398 51.186 41.2527C52.3204 46.6 51.4473 50.9766 48.8076 52.4221C48.1144 52.7921 47.3171 52.9805 46.5081 52.9657C44.0889 52.9619 41.0171 51.55 37.9219 49.0342ZM42.1997 41.4571C40.9461 43.1855 39.5684 44.8407 38.0752 46.4123C38.4898 46.8005 38.9044 47.1564 39.3191 47.4864C42.9194 50.4175 46.2366 51.5124 47.7871 50.666C48.2606 50.3046 48.6475 49.8626 48.9249 49.3662C49.2023 48.8699 49.3645 48.3292 49.4018 47.7762C49.7169 45.7275 49.628 43.6458 49.139 41.624C49.0733 41.2527 48.993 40.8812 48.8777 40.489C46.6789 40.9452 44.4478 41.2686 42.1997 41.4571ZM23.9117 42.1184C23.0182 46.5184 23.6723 49.7977 25.2257 50.6454C25.7761 50.8492 26.3702 50.9433 26.9662 50.9209C27.5621 50.8986 28.1453 50.7604 28.6742 50.5159C30.7319 49.7494 32.606 48.6422 34.1959 47.2534C34.523 47.005 34.8281 46.7164 35.1566 46.4279C33.6305 44.8557 32.2163 43.2007 30.9226 41.4726C28.683 41.3068 26.459 41.0041 24.2665 40.5668C24.1307 41.1064 24.0212 41.6215 23.9117 42.1184ZM36.6137 45.0082C37.5744 43.9961 38.5336 42.8819 39.4943 41.6434C38.5336 41.6848 37.5306 41.7056 36.5261 41.7056C35.5216 41.7056 34.5843 41.6848 33.6455 41.6434C34.6266 42.8599 35.6092 43.9961 36.6122 45.0082H36.6137ZM32.0293 24.8588C31.2 25.9937 30.3926 27.1882 29.6291 28.4512C28.8655 29.6897 28.1691 30.9489 27.534 32.2042C28.1895 33.4426 28.8874 34.7018 29.651 35.983C30.4145 37.2214 31.2219 38.4419 32.0512 39.5949C33.4908 39.6776 34.9975 39.7242 36.5246 39.7242C38.0518 39.7242 39.579 39.6829 41.0419 39.5806C41.8274 38.4457 42.6347 37.2267 43.3998 35.9675C44.1648 34.7082 44.8831 33.4284 45.5168 32.1899C44.8831 30.9721 44.1634 29.713 43.3998 28.4525C42.6362 27.192 41.8288 25.9937 41.0214 24.86C39.5614 24.7565 38.0533 24.6944 36.5261 24.6944C34.9989 24.6944 33.4922 24.7552 32.0293 24.8588ZM24.8286 38.6695C26.3258 38.9728 27.8413 39.2005 29.3677 39.3516C28.8436 38.5674 28.3209 37.7819 27.8187 36.9562C27.3383 36.1513 26.858 35.3463 26.4214 34.5414C25.7893 35.9441 25.2651 37.3301 24.8286 38.6695ZM45.2321 36.9355C44.7298 37.7611 44.2276 38.5453 43.7268 39.3101C45.276 39.1382 46.8134 38.8901 48.3317 38.5674C47.8576 37.1737 47.304 35.8024 46.6731 34.4585C46.2147 35.2841 45.7343 36.1098 45.2321 36.9355ZM21.0968 26.8194C16.6453 28.3062 13.9618 30.4713 13.9618 32.1666C14.0467 32.712 14.2522 33.2372 14.5666 33.712C14.881 34.1868 15.2983 34.6018 15.7941 34.9334C17.4973 36.203 19.4505 37.1827 21.5553 37.8232C21.948 37.9527 22.3626 38.051 22.7773 38.1752C23.4476 36.1445 24.2566 34.1519 25.1994 32.208C24.2547 30.2976 23.4528 28.334 22.7992 26.3302C22.2104 26.47 21.6429 26.633 21.0968 26.8194ZM47.8732 32.1666C48.8416 34.0857 49.6706 36.0577 50.3552 38.0704C50.6399 37.9875 50.9232 37.9047 51.1845 37.822C56.0507 36.2949 59.0685 33.9615 59.0846 32.1447C59.0846 30.4519 56.2916 28.2623 51.7305 26.7766C51.2721 26.633 50.7713 26.4881 50.2705 26.3431C49.6095 28.3267 48.8088 30.2717 47.8732 32.1666ZM45.2116 27.4185C45.7139 28.2442 46.1942 29.0504 46.6293 29.8554C47.2356 28.5397 47.7601 27.1957 48.2003 25.8294C46.7181 25.5101 45.2173 25.2622 43.7049 25.0865C44.2291 25.8488 44.7298 26.6136 45.2102 27.4185H45.2116ZM24.8505 25.8125C25.2885 27.1338 25.8112 28.4759 26.4214 29.8579C26.8594 29.053 27.3383 28.248 27.8187 27.4431C28.299 26.6381 28.7998 25.8539 29.3239 25.0891C27.753 25.2716 26.2696 25.5188 24.8505 25.8125ZM39.1439 17.0384C38.773 17.3477 38.4022 17.6777 38.0299 18.0089C39.5452 19.5612 40.9381 21.2044 42.1982 22.9266C44.419 23.1167 46.6214 23.448 48.7886 23.9179C48.8762 23.6086 48.9346 23.298 49.0076 22.9887C50.0296 18.2406 49.4004 14.6067 47.7418 13.6995C47.3778 13.5184 46.9648 13.4289 46.5475 13.4408C44.7649 13.433 42.0288 14.6636 39.1439 17.0345V17.0384ZM25.1775 13.7514C23.6285 14.5976 23.0167 17.983 23.9336 22.4427C24.0431 22.9176 24.1526 23.3912 24.2825 23.8869C26.4527 23.4341 28.6544 23.1099 30.873 22.9163C32.1376 21.1918 33.5379 19.5486 35.0632 17.9986C34.8237 17.7709 34.5609 17.5651 34.3215 17.358C31.2847 14.8125 28.3647 13.4692 26.4579 13.4692C26.0099 13.4557 25.5663 13.5534 25.1775 13.7514ZM39.449 22.7519C38.5491 21.5977 37.5782 20.4883 36.5407 19.4286C35.5596 20.4393 34.577 21.5548 33.6207 22.7519C34.5814 22.7105 35.5406 22.6898 36.5232 22.6898C37.5058 22.6898 38.4898 22.7067 39.4505 22.7519H39.449ZM32.1607 32.2495C32.1403 31.7188 32.2381 31.1899 32.4488 30.6929C32.6593 30.1958 32.9784 29.7405 33.388 29.3531C33.7974 28.9656 34.2891 28.6537 34.8348 28.4349C35.3807 28.2162 35.9698 28.095 36.5684 28.0785C37.7763 28.115 38.9187 28.5746 39.745 29.3564C40.5712 30.1383 41.014 31.1787 40.9762 32.2495C41.0152 33.321 40.5728 34.3627 39.746 35.1454C38.9193 35.9282 37.776 36.3882 36.567 36.4242C35.9679 36.4077 35.3785 36.2866 34.8326 36.0676C34.2866 35.8486 33.7947 35.5361 33.3853 35.1482C32.976 34.7604 32.6571 34.3046 32.4469 33.8071C32.2368 33.3097 32.1394 32.7802 32.1607 32.2495Z" fill="#E6E6E6"/>
</svg>
