<svg width="767" height="635" viewBox="0 0 767 635" fill="none" xmlns="http://www.w3.org/2000/svg">
<path d="M758.169 285.456C804.978 573.093 663.937 543.252 376.929 622C101.759 697.5 0 413.183 0 285.456C0 157.728 193 145.93 376.929 37.5C600.5 -94.2997 737.396 157.8 758.169 285.456Z" fill="url(#paint0_radial)"/>
<path d="M671.952 154.862H555.795C554.111 154.862 552.747 156.226 552.747 157.91C552.747 159.593 554.111 160.958 555.795 160.958H671.952C673.635 160.958 675 159.593 675 157.91C675 156.226 673.635 154.862 671.952 154.862Z" fill="#F2F2F2"/>
<path d="M599.443 116H483.285C481.602 116 480.237 117.365 480.237 119.048C480.237 120.731 481.602 122.096 483.285 122.096H599.442C601.126 122.096 602.49 120.731 602.49 119.048C602.49 117.365 601.126 116 599.443 116Z" fill="#F2F2F2"/>
<path d="M651.717 478.708H535.559C533.876 478.708 532.511 480.073 532.511 481.757C532.511 483.44 533.876 484.805 535.559 484.805H651.717C653.4 484.805 654.765 483.44 654.765 481.757C654.765 480.073 653.4 478.708 651.717 478.708Z" fill="#F2F2F2"/>
<path d="M644.971 131.24H528.814C527.131 131.24 525.766 132.604 525.766 134.288C525.766 135.971 527.131 137.336 528.814 137.336H644.971C646.655 137.336 648.019 135.971 648.019 134.288C648.019 132.604 646.655 131.24 644.971 131.24Z" fill="#4D3BFF"/>
<path d="M621.364 500.806H505.207C503.523 500.806 502.159 502.171 502.159 503.854C502.159 505.538 503.523 506.902 505.207 506.902H621.364C623.047 506.902 624.412 505.538 624.412 503.854C624.412 502.171 623.047 500.806 621.364 500.806Z" fill="#4D3BFF"/>
<path d="M587.639 522.904H471.481C469.798 522.904 468.433 524.269 468.433 525.952C468.433 527.635 469.798 529 471.481 529H587.639C589.322 529 590.687 527.635 590.687 525.952C590.687 524.269 589.322 522.904 587.639 522.904Z" fill="#F2F2F2"/>
<g clip-path="url(#clip0)">
<path opacity="0.1" d="M590.718 354.59C590.723 364.245 589.743 373.854 587.803 383.144C585.929 392.101 583.171 400.675 579.605 408.636C579.605 437.477 565.216 462.404 544.33 474.263C535.603 479.169 526.241 481.674 516.791 481.632H196.395C179.271 481.632 163.402 475.38 150.387 464.73C146.662 461.696 143.129 458.251 139.823 454.431C125.358 437.61 116.389 414.364 116.389 388.688C108.271 371.773 103.966 352.026 104 331.857C104 289.625 122.46 253.31 148.906 237.278C152.418 235.15 156.047 233.394 159.76 232.027C161.073 231.544 162.4 231.11 163.742 230.726C167.318 229.696 170.946 229.022 174.595 228.712C175.914 228.6 177.24 228.537 178.573 228.522H179.305C180.777 228.522 182.236 228.591 183.687 228.706L184.164 227.612C184.748 226.292 185.346 224.985 185.959 223.692C187.065 221.335 188.225 219.013 189.439 216.726C190.71 214.312 192.036 211.936 193.417 209.599L193.77 209.023C194.553 207.703 195.353 206.398 196.17 205.109C198.723 201.083 201.417 197.178 204.254 193.393C234.933 152.704 282.996 126.51 337.029 126.51C379.072 126.51 417.503 142.371 446.94 168.576C458.092 160.036 470.69 155.556 483.504 155.571C525.087 155.571 558.809 201.839 558.809 258.912C558.802 262.523 558.66 266.132 558.383 269.723C568.407 279.324 576.577 292.047 582.205 306.817C587.832 321.588 590.752 337.973 590.718 354.59V354.59Z" fill="#F2F2F2"/>
<path opacity="0.2" d="M204.262 193.367V205.082H196.179C198.711 201.06 201.406 197.155 204.262 193.367Z" fill="#F2F2F2"/>
<path opacity="0.2" d="M219.098 190.397H208.244V205.082H219.098V190.397Z" fill="#F2F2F2"/>
<path opacity="0.2" d="M233.929 190.397H223.076V205.082H233.929V190.397Z" fill="#F2F2F2"/>
<path opacity="0.2" d="M248.764 190.397H237.911V205.082H248.764V190.397Z" fill="#F2F2F2"/>
<path opacity="0.2" d="M263.596 190.397H252.742V205.082H263.596V190.397Z" fill="#F2F2F2"/>
<path opacity="0.2" d="M278.431 190.397H267.578V205.082H278.431V190.397Z" fill="#F2F2F2"/>
<path d="M293.267 190.397H282.413V205.082H293.267V190.397Z" fill="#F2F2F2"/>
<path opacity="0.2" d="M308.098 190.397H297.245V205.082H308.098V190.397Z" fill="#F2F2F2"/>
<path opacity="0.2" d="M322.934 190.397H312.08V205.082H322.934V190.397Z" fill="#F2F2F2"/>
<path opacity="0.2" d="M337.765 190.397H326.912V205.082H337.765V190.397Z" fill="#F2F2F2"/>
<path d="M352.6 190.397H341.747V205.082H352.6V190.397Z" fill="#F2F2F2"/>
<path opacity="0.2" d="M367.436 190.397H356.583V205.082H367.436V190.397Z" fill="#F2F2F2"/>
<path opacity="0.2" d="M382.267 190.397H371.414V205.082H382.267V190.397Z" fill="#F2F2F2"/>
<path opacity="0.2" d="M397.103 190.397H386.249V205.082H397.103V190.397Z" fill="#F2F2F2"/>
<path opacity="0.2" d="M411.938 190.397H401.085V205.082H411.938V190.397Z" fill="#F2F2F2"/>
<path opacity="0.2" d="M426.77 190.397H415.916V205.082H426.77V190.397Z" fill="#F2F2F2"/>
<path opacity="0.2" d="M441.605 190.397H430.752V205.082H441.605V190.397Z" fill="#F2F2F2"/>
<path d="M456.436 190.397H445.583V205.082H456.436V190.397Z" fill="#F2F2F2"/>
<path d="M471.272 190.397H460.419V205.082H471.272V190.397Z" fill="#F2F2F2"/>
<path opacity="0.2" d="M486.107 190.397H475.254V205.082H486.107V190.397Z" fill="#F2F2F2"/>
<path opacity="0.2" d="M500.939 190.397H490.085V205.082H500.939V190.397Z" fill="#F2F2F2"/>
<path d="M515.774 190.397H504.921V205.082H515.774V190.397Z" fill="#F2F2F2"/>
<path d="M530.605 190.397H519.752V205.082H530.605V190.397Z" fill="#F2F2F2"/>
<path d="M189.431 216.717V223.683H185.951C187.057 221.311 188.217 218.989 189.431 216.717Z" fill="#F2F2F2"/>
<path opacity="0.2" d="M204.262 208.997H193.409V223.683H204.262V208.997Z" fill="#F2F2F2"/>
<path d="M219.098 208.997H208.244V223.683H219.098V208.997Z" fill="#F2F2F2"/>
<path opacity="0.2" d="M233.929 208.997H223.076V223.683H233.929V208.997Z" fill="#F2F2F2"/>
<path opacity="0.7" d="M248.764 208.997H237.911V223.683H248.764V208.997Z" fill="#F2F2F2"/>
<path opacity="0.2" d="M263.596 208.997H252.742V223.683H263.596V208.997Z" fill="#F2F2F2"/>
<path opacity="0.4" d="M278.431 208.997H267.578V223.683H278.431V208.997Z" fill="#F2F2F2"/>
<path d="M293.267 208.997H282.413V223.683H293.267V208.997Z" fill="#F2F2F2"/>
<path opacity="0.4" d="M308.098 208.997H297.245V223.683H308.098V208.997Z" fill="#F2F2F2"/>
<path opacity="0.2" d="M322.934 208.997H312.08V223.683H322.934V208.997Z" fill="#F2F2F2"/>
<path opacity="0.4" d="M337.765 208.997H326.912V223.683H337.765V208.997Z" fill="#F2F2F2"/>
<path d="M352.6 208.997H341.747V223.683H352.6V208.997Z" fill="#F2F2F2"/>
<path opacity="0.4" d="M367.436 208.997H356.583V223.683H367.436V208.997Z" fill="#F2F2F2"/>
<path opacity="0.4" d="M382.267 208.997H371.414V223.683H382.267V208.997Z" fill="#F2F2F2"/>
<path opacity="0.2" d="M397.103 208.997H386.249V223.683H397.103V208.997Z" fill="#F2F2F2"/>
<path opacity="0.4" d="M411.938 208.997H401.085V223.683H411.938V208.997Z" fill="#F2F2F2"/>
<path opacity="0.4" d="M426.77 208.997H415.916V223.683H426.77V208.997Z" fill="#F2F2F2"/>
<path opacity="0.2" d="M441.605 208.997H430.752V223.683H441.605V208.997Z" fill="#F2F2F2"/>
<path opacity="0.2" d="M456.436 208.997H445.583V223.683H456.436V208.997Z" fill="#F2F2F2"/>
<path opacity="0.4" d="M471.272 208.997H460.419V223.683H471.272V208.997Z" fill="#F2F2F2"/>
<path opacity="0.2" d="M486.107 208.997H475.254V223.683H486.107V208.997Z" fill="#F2F2F2"/>
<path d="M500.939 208.997H490.085V223.683H500.939V208.997Z" fill="#F2F2F2"/>
<path d="M515.774 208.997H504.921V223.683H515.774V208.997Z" fill="#F2F2F2"/>
<path d="M530.605 208.997H519.752V223.683H530.605V208.997Z" fill="#F2F2F2"/>
<path opacity="0.2" d="M159.76 232.024V242.289H148.906V237.275C152.418 235.147 156.047 233.391 159.76 232.024V232.024Z" fill="#F2F2F2"/>
<path opacity="0.2" d="M174.595 228.708V242.289H163.742V230.723L174.595 228.708Z" fill="#F2F2F2"/>
<path d="M189.427 227.603H178.573V242.289H189.427V227.603Z" fill="#F2F2F2"/>
<path opacity="0.7" d="M204.262 227.603H193.409V242.289H204.262V227.603Z" fill="#F2F2F2"/>
<path d="M219.098 227.603H208.244V242.289H219.098V227.603Z" fill="#F2F2F2"/>
<path opacity="0.7" d="M233.929 227.603H223.076V242.289H233.929V227.603Z" fill="#F2F2F2"/>
<path opacity="0.7" d="M248.764 227.603H237.911V242.289H248.764V227.603Z" fill="#F2F2F2"/>
<path opacity="0.2" d="M263.596 227.603H252.742V242.289H263.596V227.603Z" fill="#F2F2F2"/>
<path opacity="0.4" d="M278.431 227.603H267.578V242.289H278.431V227.603Z" fill="#F2F2F2"/>
<path opacity="0.4" d="M293.267 227.603H282.413V242.289H293.267V227.603Z" fill="#F2F2F2"/>
<path d="M308.098 227.603H297.245V242.289H308.098V227.603Z" fill="#F2F2F2"/>
<path opacity="0.2" d="M322.934 227.603H312.08V242.289H322.934V227.603Z" fill="#F2F2F2"/>
<path opacity="0.4" d="M337.765 227.603H326.912V242.289H337.765V227.603Z" fill="#F2F2F2"/>
<path d="M352.6 227.603H341.747V242.289H352.6V227.603Z" fill="#F2F2F2"/>
<path opacity="0.2" d="M367.436 227.603H356.583V242.289H367.436V227.603Z" fill="#F2F2F2"/>
<path opacity="0.4" d="M382.267 227.603H371.414V242.289H382.267V227.603Z" fill="#F2F2F2"/>
<path opacity="0.2" d="M397.103 227.603H386.249V242.289H397.103V227.603Z" fill="#F2F2F2"/>
<path d="M411.938 227.603H401.085V242.289H411.938V227.603Z" fill="#F2F2F2"/>
<path opacity="0.2" d="M426.77 227.603H415.916V242.289H426.77V227.603Z" fill="#F2F2F2"/>
<path opacity="0.7" d="M441.605 227.603H430.752V242.289H441.605V227.603Z" fill="#F2F2F2"/>
<path opacity="0.7" d="M456.436 227.603H445.583V242.289H456.436V227.603Z" fill="#F2F2F2"/>
<path opacity="0.4" d="M471.272 227.603H460.419V242.289H471.272V227.603Z" fill="#F2F2F2"/>
<path opacity="0.2" d="M486.107 227.603H475.254V242.289H486.107V227.603Z" fill="#F2F2F2"/>
<path d="M500.939 227.603H490.085V242.289H500.939V227.603Z" fill="#F2F2F2"/>
<path d="M515.774 227.603H504.921V242.289H515.774V227.603Z" fill="#F2F2F2"/>
<path d="M530.605 227.603H519.752V242.289H530.605V227.603Z" fill="#F2F2F2"/>
<path opacity="0.2" d="M159.76 246.203H148.906V260.889H159.76V246.203Z" fill="#F2F2F2"/>
<path opacity="0.2" d="M174.595 246.203H163.742V260.889H174.595V246.203Z" fill="#F2F2F2"/>
<path opacity="0.2" d="M189.427 246.203H178.573V260.889H189.427V246.203Z" fill="#F2F2F2"/>
<path opacity="0.2" d="M204.262 246.203H193.409V260.889H204.262V246.203Z" fill="#F2F2F2"/>
<path d="M219.098 246.203H208.244V260.889H219.098V246.203Z" fill="#F2F2F2"/>
<path opacity="0.7" d="M233.929 246.203H223.076V260.889H233.929V246.203Z" fill="#F2F2F2"/>
<path opacity="0.7" d="M248.764 246.203H237.911V260.889H248.764V246.203Z" fill="#F2F2F2"/>
<path opacity="0.2" d="M263.596 246.203H252.742V260.889H263.596V246.203Z" fill="#F2F2F2"/>
<path opacity="0.2" d="M278.431 246.203H267.578V260.889H278.431V246.203Z" fill="#F2F2F2"/>
<path opacity="0.4" d="M293.267 246.203H282.413V260.889H293.267V246.203Z" fill="#F2F2F2"/>
<path opacity="0.4" d="M308.098 246.203H297.245V260.889H308.098V246.203Z" fill="#F2F2F2"/>
<path d="M322.934 246.203H312.08V260.889H322.934V246.203Z" fill="#F2F2F2"/>
<path opacity="0.2" d="M337.765 246.203H326.912V260.889H337.765V246.203Z" fill="#F2F2F2"/>
<path opacity="0.4" d="M352.6 246.203H341.747V260.889H352.6V246.203Z" fill="#F2F2F2"/>
<path opacity="0.4" d="M367.436 246.203H356.583V260.889H367.436V246.203Z" fill="#F2F2F2"/>
<path opacity="0.4" d="M382.267 246.203H371.414V260.889H382.267V246.203Z" fill="#F2F2F2"/>
<path opacity="0.4" d="M397.103 246.203H386.249V260.889H397.103V246.203Z" fill="#F2F2F2"/>
<path opacity="0.2" d="M411.938 246.203H401.085V260.889H411.938V246.203Z" fill="#F2F2F2"/>
<path opacity="0.2" d="M426.77 246.203H415.916V260.889H426.77V246.203Z" fill="#F2F2F2"/>
<path opacity="0.2" d="M441.605 246.203H430.752V260.889H441.605V246.203Z" fill="#F2F2F2"/>
<path opacity="0.2" d="M456.436 246.203H445.583V260.889H456.436V246.203Z" fill="#F2F2F2"/>
<path opacity="0.7" d="M471.272 246.203H460.419V260.889H471.272V246.203Z" fill="#F2F2F2"/>
<path opacity="0.7" d="M486.107 246.203H475.254V260.889H486.107V246.203Z" fill="#F2F2F2"/>
<path opacity="0.4" d="M500.939 246.203H490.085V260.889H500.939V246.203Z" fill="#F2F2F2"/>
<path opacity="0.2" d="M515.774 246.203H504.921V260.889H515.774V246.203Z" fill="#F2F2F2"/>
<path d="M530.605 246.203H519.752V260.889H530.605V246.203Z" fill="#F2F2F2"/>
<path opacity="0.2" d="M159.76 264.81H148.906V279.495H159.76V264.81Z" fill="#F2F2F2"/>
<path opacity="0.2" d="M174.595 264.81H163.742V279.495H174.595V264.81Z" fill="#F2F2F2"/>
<path opacity="0.4" d="M189.427 264.81H178.573V279.495H189.427V264.81Z" fill="#F2F2F2"/>
<path opacity="0.2" d="M204.262 264.81H193.409V279.495H204.262V264.81Z" fill="#F2F2F2"/>
<path opacity="0.2" d="M219.098 264.81H208.244V279.495H219.098V264.81Z" fill="#F2F2F2"/>
<path opacity="0.7" d="M233.929 264.81H223.076V279.495H233.929V264.81Z" fill="#F2F2F2"/>
<path opacity="0.7" d="M248.764 264.81H237.911V279.495H248.764V264.81Z" fill="#F2F2F2"/>
<path opacity="0.2" d="M263.596 264.81H252.742V279.495H263.596V264.81Z" fill="#F2F2F2"/>
<path opacity="0.2" d="M278.431 264.81H267.578V279.495H278.431V264.81Z" fill="#F2F2F2"/>
<path opacity="0.4" d="M293.267 264.81H282.413V279.495H293.267V264.81Z" fill="#F2F2F2"/>
<path d="M308.098 264.81H297.245V279.495H308.098V264.81Z" fill="#F2F2F2"/>
<path opacity="0.2" d="M322.934 264.81H312.08V279.495H322.934V264.81Z" fill="#F2F2F2"/>
<path d="M337.765 264.81H326.912V279.495H337.765V264.81Z" fill="#F2F2F2"/>
<path d="M352.6 264.81H341.747V279.495H352.6V264.81Z" fill="#F2F2F2"/>
<path d="M367.436 264.81H356.583V279.495H367.436V264.81Z" fill="#F2F2F2"/>
<path opacity="0.2" d="M382.267 264.81H371.414V279.495H382.267V264.81Z" fill="#F2F2F2"/>
<path d="M397.103 264.81H386.249V279.495H397.103V264.81Z" fill="#F2F2F2"/>
<path opacity="0.2" d="M411.938 264.81H401.085V279.495H411.938V264.81Z" fill="#F2F2F2"/>
<path opacity="0.2" d="M426.77 264.81H415.916V279.495H426.77V264.81Z" fill="#F2F2F2"/>
<path opacity="0.2" d="M441.605 264.81H430.752V279.495H441.605V264.81Z" fill="#F2F2F2"/>
<path opacity="0.2" d="M456.436 264.81H445.583V279.495H456.436V264.81Z" fill="#F2F2F2"/>
<path opacity="0.2" d="M471.272 264.81H460.419V279.495H471.272V264.81Z" fill="#F2F2F2"/>
<path opacity="0.7" d="M486.107 264.81H475.254V279.495H486.107V264.81Z" fill="#F2F2F2"/>
<path opacity="0.2" d="M500.939 264.81H490.085V279.495H500.939V264.81Z" fill="#F2F2F2"/>
<path opacity="0.2" d="M515.774 264.81H504.921V279.495H515.774V264.81Z" fill="#F2F2F2"/>
<path d="M530.605 264.81H519.752V279.495H530.605V264.81Z" fill="#F2F2F2"/>
<path opacity="0.2" d="M159.76 283.41H148.906V298.096H159.76V283.41Z" fill="#F2F2F2"/>
<path opacity="0.2" d="M174.595 283.41H163.742V298.096H174.595V283.41Z" fill="#F2F2F2"/>
<path opacity="0.2" d="M189.427 283.41H178.573V298.096H189.427V283.41Z" fill="#F2F2F2"/>
<path opacity="0.4" d="M204.262 283.41H193.409V298.096H204.262V283.41Z" fill="#F2F2F2"/>
<path opacity="0.2" d="M219.098 283.41H208.244V298.096H219.098V283.41Z" fill="#F2F2F2"/>
<path opacity="0.2" d="M233.929 283.41H223.076V298.096H233.929V283.41Z" fill="#F2F2F2"/>
<path opacity="0.7" d="M248.764 283.41H237.911V298.096H248.764V283.41Z" fill="#F2F2F2"/>
<path opacity="0.2" d="M263.596 283.41H252.742V298.096H263.596V283.41Z" fill="#F2F2F2"/>
<path opacity="0.2" d="M278.431 283.41H267.578V298.096H278.431V283.41Z" fill="#F2F2F2"/>
<path opacity="0.2" d="M293.267 283.41H282.413V298.096H293.267V283.41Z" fill="#F2F2F2"/>
<path d="M308.098 283.41H297.245V298.096H308.098V283.41Z" fill="#F2F2F2"/>
<path opacity="0.2" d="M322.934 283.41H312.08V298.096H322.934V283.41Z" fill="#F2F2F2"/>
<path d="M337.765 283.41H326.912V298.096H337.765V283.41Z" fill="#F2F2F2"/>
<path d="M352.6 283.41H341.747V298.096H352.6V283.41Z" fill="#F2F2F2"/>
<path opacity="0.2" d="M367.436 283.41H356.583V298.096H367.436V283.41Z" fill="#F2F2F2"/>
<path opacity="0.2" d="M382.267 283.41H371.414V298.096H382.267V283.41Z" fill="#F2F2F2"/>
<path opacity="0.2" d="M397.103 283.41H386.249V298.096H397.103V283.41Z" fill="#F2F2F2"/>
<path opacity="0.2" d="M411.938 283.41H401.085V298.096H411.938V283.41Z" fill="#F2F2F2"/>
<path opacity="0.2" d="M426.77 283.41H415.916V298.096H426.77V283.41Z" fill="#F2F2F2"/>
<path opacity="0.2" d="M441.605 283.41H430.752V298.096H441.605V283.41Z" fill="#F2F2F2"/>
<path opacity="0.2" d="M456.436 283.41H445.583V298.096H456.436V283.41Z" fill="#F2F2F2"/>
<path opacity="0.2" d="M471.272 283.41H460.419V298.096H471.272V283.41Z" fill="#F2F2F2"/>
<path opacity="0.2" d="M486.107 283.41H475.254V298.096H486.107V283.41Z" fill="#F2F2F2"/>
<path opacity="0.2" d="M500.939 283.41H490.085V298.096H500.939V283.41Z" fill="#F2F2F2"/>
<path opacity="0.4" d="M515.774 283.41H504.921V298.096H515.774V283.41Z" fill="#F2F2F2"/>
<path d="M530.605 283.41H519.752V298.096H530.605V283.41Z" fill="#F2F2F2"/>
<path opacity="0.7" d="M159.76 302.016H148.906V316.702H159.76V302.016Z" fill="#F2F2F2"/>
<path opacity="0.7" d="M174.595 302.016H163.742V316.702H174.595V302.016Z" fill="#F2F2F2"/>
<path opacity="0.7" d="M189.427 302.016H178.573V316.702H189.427V302.016Z" fill="#F2F2F2"/>
<path opacity="0.7" d="M204.262 302.016H193.409V316.702H204.262V302.016Z" fill="#F2F2F2"/>
<path opacity="0.7" d="M219.098 302.016H208.244V316.702H219.098V302.016Z" fill="#F2F2F2"/>
<path opacity="0.2" d="M233.929 302.016H223.076V316.702H233.929V302.016Z" fill="#F2F2F2"/>
<path opacity="0.2" d="M248.764 302.016H237.911V316.702H248.764V302.016Z" fill="#F2F2F2"/>
<path opacity="0.2" d="M263.596 302.016H252.742V316.702H263.596V302.016Z" fill="#F2F2F2"/>
<path opacity="0.2" d="M278.431 302.016H267.578V316.702H278.431V302.016Z" fill="#F2F2F2"/>
<path opacity="0.2" d="M293.267 302.016H282.413V316.702H293.267V302.016Z" fill="#F2F2F2"/>
<path opacity="0.2" d="M308.098 302.016H297.245V316.702H308.098V302.016Z" fill="#F2F2F2"/>
<path d="M322.934 302.016H312.08V316.702H322.934V302.016Z" fill="#F2F2F2"/>
<path opacity="0.2" d="M337.765 302.016H326.912V316.702H337.765V302.016Z" fill="#F2F2F2"/>
<path opacity="0.2" d="M352.6 302.016H341.747V316.702H352.6V302.016Z" fill="#F2F2F2"/>
<path opacity="0.2" d="M367.436 302.016H356.583V316.702H367.436V302.016Z" fill="#F2F2F2"/>
<path d="M382.267 302.016H371.414V316.702H382.267V302.016Z" fill="#F2F2F2"/>
<path opacity="0.2" d="M397.103 302.016H386.249V316.702H397.103V302.016Z" fill="#F2F2F2"/>
<path opacity="0.2" d="M411.938 302.016H401.085V316.702H411.938V302.016Z" fill="#F2F2F2"/>
<path opacity="0.2" d="M426.77 302.016H415.916V316.702H426.77V302.016Z" fill="#F2F2F2"/>
<path opacity="0.2" d="M441.605 302.016H430.752V316.702H441.605V302.016Z" fill="#F2F2F2"/>
<path opacity="0.2" d="M456.436 302.016H445.583V316.702H456.436V302.016Z" fill="#F2F2F2"/>
<path opacity="0.2" d="M471.272 302.016H460.419V316.702H471.272V302.016Z" fill="#F2F2F2"/>
<path opacity="0.2" d="M486.107 302.016H475.254V316.702H486.107V302.016Z" fill="#F2F2F2"/>
<path opacity="0.2" d="M500.939 302.016H490.085V316.702H500.939V302.016Z" fill="#F2F2F2"/>
<path opacity="0.2" d="M515.774 302.016H504.921V316.702H515.774V302.016Z" fill="#F2F2F2"/>
<path d="M530.605 302.016H519.752V316.702H530.605V302.016Z" fill="#F2F2F2"/>
<path d="M416.503 356.044C424.697 356.044 431.339 347.056 431.339 335.97C431.339 324.883 424.697 315.896 416.503 315.896C408.31 315.896 401.668 324.883 401.668 335.97C401.668 347.056 408.31 356.044 416.503 356.044Z" fill="#767D9F"/>
<path d="M415.733 310.432C417.214 319.175 418.47 327.983 419.503 336.856C419.813 339.493 420.09 342.273 419.384 344.766C418.792 346.844 417.588 348.468 416.644 350.287C415.699 352.106 414.984 354.438 415.559 356.522C416.133 358.606 417.809 359.745 419.409 360.333C423.987 362.002 428.867 360.787 433.424 358.98C435.487 358.261 437.465 357.153 439.299 355.687C441.231 354.029 442.813 351.726 444.268 349.354C450.91 338.457 455.258 325.377 459.351 312.378C456.721 312.702 454.072 312.175 451.622 310.839C449.173 309.504 446.993 307.399 445.264 304.699C443.588 302.033 442.358 298.32 443.303 295.062C440.533 297.117 437.244 297.255 434.262 298.66C432.412 299.615 430.632 300.801 428.944 302.2C426.907 303.793 424.882 305.416 422.868 307.07C420.566 308.947 418.409 310.617 415.733 310.432Z" fill="#C19A8A"/>
<path d="M446.761 325.504C444.162 332.349 440.78 338.929 435.951 343.005C431.122 347.081 424.621 348.186 419.784 344.156C417.401 342.187 415.597 339.194 413.517 336.672C411.436 334.151 408.837 331.992 406.041 332.32C402.961 332.683 400.549 335.935 398.485 339.05C395.354 343.782 392.329 348.715 390.113 354.317C385.858 365.082 384.85 377.667 385.037 389.871C385.224 402.076 386.53 414.217 386.56 426.421C386.603 441.435 384.722 456.328 382.82 471.117C400.306 468.204 417.814 474.571 435.338 476.983C446.553 478.544 457.853 478.509 469.128 478.469C471.11 478.469 473.22 478.4 474.871 476.914C475.88 475.918 476.696 474.607 477.249 473.092C478.807 469.206 479.432 464.773 479.866 460.392C480.968 449.328 481.002 438.125 481.032 426.957C481.108 399.899 481.181 372.744 478.641 345.9C478.015 339.297 477.215 332.66 475.343 326.483C473.471 320.305 470.417 314.623 466.145 311.313C463.401 309.183 457.04 305.476 453.807 307.623C450.178 310.018 448.502 320.921 446.761 325.504Z" fill="#4D3BFF"/>
<path d="M448.055 401.908C447.395 385.214 444.711 367.396 450.425 352.578C451.829 348.94 446.791 344.398 448.348 340.875C450.249 336.579 451.69 331.941 452.629 327.098C452.952 325.435 453.211 323.673 452.905 322.004C452.339 318.958 450.114 317.145 448.225 315.291C446.14 313.242 445.068 306.996 444.396 303.616C443.724 300.237 449.744 304.307 452.165 303.104C455.526 301.44 459.797 302.488 463.15 304.175C465.022 305.107 467.056 305.188 469.051 305.257C472.927 305.395 476.815 305.528 480.662 304.883C482.389 304.589 484.121 304.146 485.856 304.278C490.285 304.618 494.136 308.717 496.756 313.564C499.377 318.411 501.045 324.059 503.194 329.309C504.985 333.684 507.12 337.818 508.648 342.371C510.001 346.401 510.856 350.73 511.703 355.036L513.885 366.084C514.267 367.664 514.448 369.32 514.421 370.983C514.311 372.75 513.732 374.397 513.145 375.968C510.925 381.793 508.263 387.29 505.202 392.369C500.611 399.986 495.038 406.854 492.31 415.972C491.247 419.524 490.655 423.301 490.115 427.066C487.937 442.124 486.388 457.337 485.478 472.631C480.506 469.518 475.295 467.161 469.94 465.602C467.271 464.829 464.572 464.253 461.857 463.875C459.478 463.541 456.411 464.174 454.147 463.299C450.361 461.843 449.944 453.179 449.37 448.642C448.451 441.418 448.268 434.066 448.234 426.766C448.191 418.465 448.383 410.181 448.055 401.908Z" fill="#F2F2F2"/>
<path d="M364.9 370.689C366.691 384.506 368.665 398.362 372.558 411.344C372.46 411.471 372.363 411.586 372.265 411.701C371.92 412.098 371.563 412.472 371.188 412.852C370.316 413.681 369.359 414.384 368.636 415.466C368.362 415.88 368.146 416.358 367.998 416.876C367.864 417.281 367.795 417.72 367.795 418.163C367.795 418.606 367.864 419.045 367.998 419.45C365.968 420.664 363.611 420.29 361.335 420.175C359.374 420.077 357.472 420.175 355.898 421.631C353.711 423.669 353.051 427.584 352.698 431.142C352.568 432.439 352.456 433.738 352.362 435.039C352.271 436.248 352.198 437.461 352.141 438.677C351.948 442.702 351.921 446.738 352.06 450.767C352.083 451.504 352.113 452.24 352.149 452.977C345.198 452.753 338.863 447.848 332.868 443.081C331.498 441.993 330.085 440.848 329.196 439.052C328.377 437.288 328.03 435.196 328.213 433.128C328.213 432.834 328.252 432.552 328.282 432.253C328.472 430.544 328.799 428.869 329.256 427.256C331.131 420.385 333.896 414.02 337.42 408.46C338.943 406.053 340.658 403.699 341.368 400.677C341.679 399.358 341.794 397.959 342.109 396.647C343.521 390.959 348.618 388.271 350.362 382.75C350.788 381.431 350.984 379.986 351.511 378.72C351.986 377.667 352.599 376.741 353.319 375.985C353.63 375.634 353.953 375.295 354.272 374.955C357.262 371.785 360.142 368.436 362.913 364.909C363.43 364.253 363.94 363.589 364.445 362.917C364.378 365.523 364.53 368.131 364.9 370.689V370.689Z" fill="#F2F2F2"/>
<path d="M407.773 329.827C407.16 330.702 406.497 331.525 405.846 332.343L405.671 332.556L404.982 333.419C403.731 334.88 402.648 336.586 401.77 338.48L401.698 338.641C399.528 343.897 400.332 350.368 400.936 356.337C401.685 363.777 402.022 371.282 401.944 378.789C401.834 389.151 400.932 399.445 400.915 409.795C400.915 412.144 400.953 414.487 401.03 416.836C401.153 420.653 401.366 424.464 401.621 428.275C401.898 432.454 402.229 436.628 402.54 440.802C402.787 444.031 403.021 447.255 403.216 450.479C403.314 452.148 403.408 453.812 403.485 455.482C403.574 457.439 403.646 459.402 403.689 461.359C403.719 462.603 403.736 463.84 403.736 465.084C403.736 465.792 403.736 466.494 403.736 467.197C403.736 468.544 403.709 469.887 403.655 471.226C403.598 472.95 403.511 474.677 403.395 476.408C403.263 478.29 403.029 480.345 402.051 481.669C401.991 481.75 401.927 481.825 401.864 481.9L400.485 481.669C390.983 480.13 381.389 479.899 371.852 480.979C372.061 479.033 372.252 477.093 372.439 475.141C372.524 474.22 372.609 473.293 372.69 472.366C372.784 471.307 372.873 470.248 372.958 469.189C373.056 468.037 373.145 466.886 373.231 465.734C373.452 462.768 373.646 459.799 373.813 456.829C374.06 452.496 374.247 448.155 374.375 443.807C374.437 441.73 374.486 439.652 374.52 437.572C374.568 434.993 374.591 432.412 374.588 429.829C374.588 427.319 374.572 424.805 374.541 422.288C374.541 421.459 374.515 420.63 374.464 419.806C374.428 419.065 374.352 418.328 374.239 417.602C373.923 415.926 373.496 414.292 372.963 412.72C372.869 412.42 372.78 412.144 372.69 411.827C372.639 411.672 372.592 411.511 372.546 411.355C374.996 408.402 376.741 404.447 378.417 400.556C381.135 394.286 383.918 387.741 384.373 380.499C384.828 373.257 382.169 365.122 377.055 362.912C375.664 362.336 374.192 362.175 372.758 361.835C371.405 361.513 368.585 360.782 367.019 359.469C366.168 360.651 365.317 361.812 364.466 362.952C364.518 361.213 364.832 359.506 365.39 357.938L365.994 357.978C365.944 357.794 365.921 357.598 365.926 357.402C365.926 356.786 366.24 356.09 366.913 355.318C368.917 353.016 372.069 352.503 373.333 349.389C373.86 348.094 373.95 346.551 374.375 345.192C375.596 341.318 379.102 339.89 381.212 336.793C383.322 333.696 383.85 329.309 385.556 325.855C386.83 323.333 388.598 321.339 390.661 320.098C390.832 319.989 391.006 319.879 391.18 319.782C394.712 317.738 398.907 317.272 402.566 317.283C403.987 317.283 407.671 317.341 409.475 318.314C409.767 318.455 410.035 318.676 410.262 318.964C412.185 321.796 409.194 327.778 407.773 329.827Z" fill="#F2F2F2"/>
<path d="M365.534 357.535C368.821 356.196 372.271 355.754 375.685 356.236C379.099 356.717 382.408 358.112 385.42 360.338C388.483 362.641 391.232 365.853 392.916 369.998C395.448 376.216 395.337 383.711 395.158 390.809C395.069 394.361 394.954 398.04 393.797 401.229C392.457 404.919 389.93 407.452 387.351 409.525C385.736 410.919 383.967 411.955 382.11 412.593C379.251 413.433 376.281 412.72 373.401 412.017C370.269 411.234 366.908 410.29 364.734 407.136C363.458 405.305 362.76 402.927 362.071 400.602C361.081 397.243 360.088 393.889 359.093 390.539C357.37 384.718 356.787 379.877 359.063 374.207C360.097 371.622 361.36 369.204 362.382 366.602C362.892 365.278 364.722 357.874 365.534 357.535Z" fill="#F2F2F2"/>
<path d="M544.343 457.053V474.266C535.616 479.172 526.254 481.677 516.804 481.635H402.063C402.004 481.715 401.94 481.79 401.876 481.865L400.498 481.635H196.396C179.271 481.635 163.402 475.383 150.387 464.733V438.453L248.547 423.122H248.624L305.788 429.674L320.581 431.401L328.264 432.281L344.168 434.106L352.349 435.045L364.262 436.415L365.938 436.605L374.524 437.589L386.173 438.885L402.553 440.761L429.858 443.899L449.067 446.104L480.611 449.725L486.609 450.41L487.256 450.485L487.818 450.548L495.74 451.458L504.436 452.459L505.444 452.574L544.343 457.053Z" fill="#504F60"/>
<path d="M429.046 456.42L306.03 428.01L301.261 460.646L357.651 469.782L375.013 472.723L422.775 459.995L429.046 456.42Z" fill="#9C9CA1"/>
<path d="M365.368 471.088L426.999 455.413C427.308 455.333 427.625 455.346 427.929 455.452C428.233 455.558 428.516 455.753 428.758 456.025C428.999 456.296 429.193 456.636 429.326 457.021C429.459 457.406 429.528 457.826 429.526 458.251V458.251C429.528 458.924 429.354 459.578 429.036 460.096C428.718 460.615 428.276 460.966 427.786 461.089L367.598 476.339L365.368 471.088Z" fill="#9C9CA1"/>
<path d="M392.104 421.793C394.022 421.551 395.967 421.142 397.694 419.991C399.821 418.557 401.476 416.088 403.446 414.268C407.777 410.239 413.572 409.697 418.537 412.012C423.502 414.326 427.646 419.283 430.548 425.201C432.475 429.144 433.921 434.176 432.56 438.528C432.093 439.858 431.504 441.104 430.807 442.235L427.259 448.51C426.585 449.829 425.774 451.01 424.851 452.016C423.523 453.323 421.873 453.858 420.247 454.181C415.929 455.033 411.534 454.549 407.182 454.94C399.706 455.614 392.406 458.872 384.913 458.763C380.608 458.7 376.358 457.525 372.15 456.351L353.528 451.17C350.286 450.272 346.623 448.959 345.095 444.981C344.41 443.191 344.283 441.118 344.202 439.103C343.981 433.554 344.202 427.382 347.044 423.381C349.716 419.628 353.941 418.442 357.131 415.667C361.037 412.265 362.326 413.365 366.445 415.921C374.479 420.844 383.319 422.867 392.104 421.793V421.793Z" fill="#C19A8A"/>
<path opacity="0.05" d="M392.104 421.793C394.022 421.551 395.967 421.142 397.694 419.991C399.821 418.557 401.476 416.088 403.446 414.268C407.777 410.239 413.572 409.697 418.537 412.012C423.502 414.326 427.646 419.283 430.548 425.201C432.475 429.144 433.921 434.176 432.56 438.528C432.093 439.858 431.504 441.104 430.807 442.235L427.259 448.51C426.585 449.829 425.774 451.01 424.851 452.016C423.523 453.323 421.873 453.858 420.247 454.181C415.929 455.033 411.534 454.549 407.182 454.94C399.706 455.614 392.406 458.872 384.913 458.763C380.608 458.7 376.358 457.525 372.15 456.351L353.528 451.17C350.286 450.272 346.623 448.959 345.095 444.981C344.41 443.191 344.283 441.118 344.202 439.103C343.981 433.554 344.202 427.382 347.044 423.381C349.716 419.628 353.941 418.442 357.131 415.667C361.037 412.265 362.326 413.365 366.445 415.921C374.479 420.844 383.319 422.867 392.104 421.793V421.793Z" fill="black"/>
<path d="M466.885 413.9C461.661 416.634 456.407 419.38 450.935 421.01C441.762 423.744 432.164 423.312 423.064 426.438C418.256 428.096 413.478 430.767 408.539 430.226C406.331 429.984 404.199 429.075 402.051 428.384C389.981 424.354 376.26 425.661 366.457 436.023C363.105 439.564 360.361 443.979 357.872 448.688C357.339 449.706 356.979 450.869 356.818 452.097C356.656 453.324 356.697 454.584 356.937 455.787C357.177 456.991 357.611 458.108 358.207 459.058C358.804 460.008 359.548 460.768 360.386 461.284C364.198 463.656 368.282 465.13 372.461 465.642C378.047 466.31 383.658 465.239 389.215 464.169C397.46 462.585 405.71 460.997 413.934 459.218C416.886 458.579 419.839 457.917 422.809 457.41C444.179 453.754 465.937 458.199 487.362 455.148C489.528 454.837 491.732 454.434 493.702 453.185C498.688 450.018 501.156 441.671 500.126 434.337C499.096 427.002 495.123 420.906 490.341 417.164C486.333 414.015 482.01 412.743 477.547 411.407C473.403 410.1 470.876 411.827 466.885 413.9Z" fill="#C19A8A"/>
<path opacity="0.1" d="M512.719 370.056C515.076 374.235 515.579 379.843 515.323 385.075C515.068 390.308 514.149 395.484 514.013 400.74C513.826 407.947 515.111 415.132 514.894 422.316C514.74 427.342 513.86 432.27 512.817 437.094C511.588 442.788 509.809 448.907 505.925 451.642C500.769 455.274 489.953 453.231 484.529 456.074C485.022 451.912 489.754 445.885 490.247 441.723C490.587 438.844 490.932 435.885 490.566 433.001C490.098 429.322 488.503 426.058 486.609 423.341C483.597 419.018 479.666 415.765 475.348 414.706C471.029 413.647 460.457 414.516 457.002 418.206C456.577 414.395 464.49 410.722 467.273 409.899C468.66 409.479 470.251 409.715 471.361 408.523C473.488 406.266 471.944 401.77 472.046 398.161C472.127 395.282 473.369 392.646 473.62 389.767C474.046 385.162 471.825 380.47 472.697 375.951C473.02 374.281 473.739 372.813 474.237 371.225C475.752 366.36 475.088 360.81 474.28 355.641C473.778 352.394 473.288 348.733 474.624 345.964C475.862 343.379 479.377 352.584 481.627 352.158C489.06 350.747 495.786 343.292 501.79 349.395C504.849 352.503 505.249 355.727 506.47 360.166C507.657 364.391 510.733 366.556 512.719 370.056Z" fill="black"/>
<path d="M513.996 370.056C516.353 374.235 516.855 379.843 516.6 385.076C516.344 390.309 515.425 395.484 515.289 400.74C515.102 407.947 516.387 415.132 516.17 422.316C516.017 427.342 515.136 432.27 514.094 437.094C512.864 442.788 511.086 448.907 507.201 451.642C502.045 455.274 491.23 453.231 485.805 456.075C486.299 451.912 491.03 445.885 491.523 441.723C491.864 438.844 492.208 435.885 491.842 433.001C491.374 429.323 489.779 426.058 487.886 423.341C484.874 419.018 480.942 415.765 476.624 414.706C472.306 413.647 461.733 414.516 458.279 418.206C457.853 414.395 465.766 410.722 468.549 409.899C469.936 409.479 471.527 409.715 472.638 408.523C474.765 406.266 473.22 401.77 473.323 398.161C473.403 395.282 474.646 392.646 474.897 389.767C475.322 385.162 473.101 380.47 473.973 375.951C474.297 374.281 475.016 372.813 475.514 371.225C477.028 366.36 476.365 360.811 475.556 355.641C475.054 352.394 474.565 348.733 475.901 345.964C477.139 343.379 479.56 342.4 481.81 341.968C489.346 340.589 496.981 343.255 503.083 349.395C506.142 352.503 506.542 355.727 507.763 360.166C508.933 364.391 512.009 366.556 513.996 370.056Z" fill="#F2F2F2"/>
<path d="M232.487 342.78L255.618 458.458C255.902 459.875 256.499 461.142 257.328 462.089C258.157 463.036 259.18 463.619 260.26 463.76L364.377 477.294C365.225 477.405 366.081 477.239 366.873 476.81C367.664 476.381 368.368 475.702 368.925 474.829C369.483 473.956 369.878 472.916 370.077 471.794C370.276 470.672 370.273 469.503 370.069 468.383L344.738 328.848C344.437 327.19 343.71 325.73 342.688 324.727C341.666 323.725 340.415 323.245 339.156 323.374L237.222 333.69C236.439 333.772 235.68 334.087 234.997 334.612C234.315 335.138 233.727 335.86 233.274 336.728C232.822 337.596 232.517 338.589 232.381 339.635C232.245 340.681 232.281 341.755 232.487 342.78V342.78Z" fill="#9C9CA1"/>
<path d="M438.878 365.353C445.199 365.353 450.323 358.329 450.323 349.665C450.323 341.001 445.199 333.978 438.878 333.978C432.557 333.978 427.433 341.001 427.433 349.665C427.433 358.329 432.557 365.353 438.878 365.353Z" fill="#F2F2F2"/>
<path d="M448.276 321.048C448.276 321.048 450.688 330.754 443.571 334.836L442.66 336.989L447.119 342.941C447.119 342.941 452.616 329.372 452.02 324.554C452.02 324.554 451.169 319.661 448.276 321.048Z" fill="#F2F2F2"/>
<path d="M440.193 365.353C446.288 365.353 451.229 358.667 451.229 350.419C451.229 342.172 446.288 335.486 440.193 335.486C434.097 335.486 429.156 342.172 429.156 350.419C429.156 358.667 434.097 365.353 440.193 365.353Z" fill="#F2F2F2"/>
<path d="M452.075 326.759L450.323 322.844L447.77 322.355C448.314 309.465 445.843 305.625 445.843 305.625L445.268 305.551L442.767 305.223L438.061 298.614V296.737C444.673 297.802 448.327 302.051 450.301 307.03C453.79 315.769 452.075 326.759 452.075 326.759Z" fill="#F2F2F2"/>
<path opacity="0.1" d="M445.289 303.179V305.551L442.788 305.223L438.082 298.614C438.082 298.614 445.362 300.819 445.289 303.179Z" fill="black" stroke="#F2F2F2" stroke-miterlimit="10"/>
<path opacity="0.1" d="M452.075 326.759L450.323 322.844V307.053C453.79 315.769 452.075 326.759 452.075 326.759Z" fill="black" stroke="#F2F2F2" stroke-miterlimit="10"/>
<path d="M419.799 356.558C422.736 354.264 422.609 346.529 419.517 339.282C416.425 332.035 411.538 328.02 408.601 330.314C405.665 332.608 405.791 340.342 408.883 347.59C411.976 354.837 416.863 358.852 419.799 356.558Z" fill="#F2F2F2"/>
<path d="M415.857 342.17C418.95 349.418 422.745 354.259 419.809 356.562C416.874 358.865 408.322 357.713 405.229 350.46C402.136 343.206 404.944 333.189 407.879 330.886C410.815 328.584 412.759 334.905 415.857 342.17Z" fill="#F2F2F2"/>
<path opacity="0.1" d="M443.396 289.955C443.396 313.115 431.683 335.434 414.568 335.434C406.347 335.434 398.464 331.016 392.651 323.151C386.839 315.286 383.573 304.619 383.573 293.496C383.573 282.373 386.839 271.706 392.651 263.841C398.464 255.976 406.347 251.557 414.568 251.557C431.683 251.58 443.396 266.79 443.396 289.955Z" fill="black"/>
<path d="M414.568 334.306C431.685 334.306 445.562 315.529 445.562 292.367C445.562 269.205 431.685 250.429 414.568 250.429C397.45 250.429 383.573 269.205 383.573 292.367C383.573 315.529 397.45 334.306 414.568 334.306Z" fill="#C19A8A"/>
<path d="M411.845 273.784C415.533 275.621 417.716 280.779 421.026 283.652C425.706 287.681 431.798 286.639 437.142 284.648C440.12 283.548 443.235 282.207 446.166 283.427C446.597 283.685 447.073 283.777 447.54 283.692C448.178 283.444 448.493 282.489 448.702 281.637C452.326 267.014 450.697 250.452 445.226 236.923C443.813 233.435 442.12 230.061 439.788 227.638C437.95 225.732 435.789 224.483 433.611 223.418C429.63 221.483 425.513 220.108 421.324 219.313C420.584 219.131 419.828 219.099 419.082 219.215C418.056 219.44 417.137 220.188 416.223 220.856C412.305 223.698 407.96 225.294 403.519 225.525C397.562 225.83 390.755 223.93 386.164 229.1C380.633 235.3 382.012 247.395 378.425 255.812C376.051 261.378 371.473 265.42 370.72 271.758C370.524 273.695 370.615 275.666 370.988 277.555C372.741 287.307 379.719 294.86 387.156 295.039C388.298 295.157 389.441 294.839 390.457 294.123C391.123 293.509 391.71 292.753 392.197 291.884C397.069 284.078 402.642 269.202 411.845 273.784Z" fill="#444053"/>
<path opacity="0.1" d="M448.702 277.394C448.493 278.246 448.178 279.202 447.54 279.449C447.073 279.534 446.597 279.443 446.166 279.184C443.234 277.964 440.103 279.305 437.146 280.405C431.798 282.397 425.693 283.462 421.03 279.409C417.716 276.53 415.538 271.349 411.845 269.542C402.642 264.936 397.069 279.835 392.184 287.641C391.698 288.51 391.11 289.266 390.444 289.88C389.429 290.597 388.285 290.914 387.143 290.796C379.731 290.617 372.75 283.064 370.976 273.312C370.878 272.737 370.793 272.161 370.729 271.585C370.729 271.637 370.729 271.683 370.708 271.735C370.512 273.672 370.603 275.643 370.976 277.532C372.729 287.284 379.71 294.837 387.143 295.016C388.285 295.133 389.429 294.816 390.444 294.1C391.11 293.486 391.698 292.729 392.184 291.861C397.069 284.055 402.642 269.179 411.845 273.761C415.538 275.598 417.716 280.756 421.03 283.629C425.71 287.658 431.798 286.616 437.146 284.624C440.124 283.525 443.234 282.184 446.166 283.404C446.597 283.662 447.073 283.754 447.54 283.669C448.178 283.421 448.493 282.466 448.702 281.614C450.164 275.631 450.809 269.338 450.608 263.042C450.482 267.925 449.84 272.758 448.702 277.394V277.394Z" fill="black"/>
</g>
<defs>
<radialGradient id="paint0_radial" cx="0" cy="0" r="1" gradientUnits="userSpaceOnUse" gradientTransform="translate(-58.9999 -92) rotate(54.648) scale(717.252 887.31)">
<stop stop-color="#C33AFC"/>
<stop offset="1" stop-color="#1E3779"/>
</radialGradient>
<clipPath id="clip0">
<rect width="486.718" height="355.381" fill="white" transform="translate(104 126.484)"/>
</clipPath>
</defs>
</svg>
