<svg width="855" height="603" viewBox="0 0 855 603" fill="none" xmlns="http://www.w3.org/2000/svg">
<path d="M846.17 249.04C892.978 536.677 751.937 506.836 464.929 585.584C189.759 661.084 26.4999 473.5 9.49995 350C-24.5 103 40.0709 150.43 224 42.0003C447.571 -89.7994 825.396 121.385 846.17 249.04Z" fill="url(#paint0_radial)"/>
<g clip-path="url(#clip0)">
<path d="M501.771 439.559H202.847V440.676H501.771V439.559Z" fill="#3F3D56"/>
<path d="M361.372 285.763C361.372 285.763 355.028 310.903 367.716 306.434C380.404 301.964 372.791 284.646 372.791 284.646L361.372 285.763Z" fill="#FFB9B9"/>
<path d="M480.004 294.143C480.004 294.143 495.229 310.345 485.713 313.697C476.197 317.049 471.122 298.612 472.391 296.936C473.66 295.26 480.004 294.143 480.004 294.143Z" fill="#FFB9B9"/>
<path d="M443.843 179.615C454.354 179.615 462.875 172.111 462.875 162.855C462.875 153.599 454.354 146.095 443.843 146.095C433.332 146.095 424.811 153.599 424.811 162.855C424.811 172.111 433.332 179.615 443.843 179.615Z" fill="#FFB9B9"/>
<path d="M429.57 169.28L427.032 186.599L447.967 193.302L452.408 173.749L429.57 169.28Z" fill="#FFB9B9"/>
<path d="M441.306 186.319C441.306 186.319 430.551 181.644 428.316 177.836L423.543 181.85C423.543 181.85 389.285 179.056 384.21 194.141C379.135 209.225 383.576 263.975 383.576 263.975C383.576 263.975 376.598 288.556 378.501 289.115C380.404 289.673 403.876 299.73 436.865 294.143C436.865 294.143 451.456 291.908 453.993 293.584C456.531 295.26 452.725 266.768 452.725 266.768C452.725 266.768 478.1 216.487 473.66 210.342C469.219 204.197 449.553 191.347 449.553 191.347L450.822 185.202C450.822 185.202 441.94 188.554 441.306 186.319Z" fill="#F2F2F2"/>
<path d="M389.285 190.23C389.285 190.23 377.866 195.258 375.963 203.079C374.06 210.901 356.297 275.707 358.2 279.618C360.103 283.528 359.469 288.556 359.469 288.556L375.963 286.88C375.963 286.88 372.791 282.97 374.694 281.294C376.598 279.618 378.501 274.031 377.232 271.796C375.963 269.561 374.694 273.472 381.673 266.209C388.651 258.947 404.511 192.465 389.285 190.23Z" fill="#F2F2F2"/>
<path d="M469.853 209.225C469.853 209.225 475.246 209.504 476.514 217.325C477.783 225.147 480.004 273.472 480.004 273.472C480.004 273.472 488.251 289.115 485.079 291.349C481.907 293.584 483.81 296.936 483.81 296.936L472.391 299.729L447.65 265.65L469.853 209.225Z" fill="#F2F2F2"/>
<path d="M380.404 286.88C380.404 286.88 376.598 287.439 376.598 299.73C376.598 312.021 369.619 350.01 374.06 356.156C378.501 362.301 379.135 417.61 379.135 417.61C379.135 417.61 391.189 422.079 401.339 407.554L402.608 399.732L405.145 361.742L415.296 314.255L429.252 366.771C429.252 366.771 427.349 429.901 434.327 429.901C441.306 429.901 454.628 424.872 454.628 424.872C454.628 424.872 457.8 419.286 456.531 416.492C455.262 413.699 453.993 414.258 455.262 412.023C456.531 409.788 458.434 351.686 458.434 351.686C458.434 351.686 455.897 291.908 452.725 290.232C449.553 288.556 380.404 286.88 380.404 286.88Z" fill="#2F2E41"/>
<path d="M380.404 415.375L370.254 424.872C370.254 424.872 351.856 439.956 367.716 440.515C383.576 441.074 392.457 431.576 392.457 430.459C392.457 429.342 393.092 425.431 397.533 425.431C401.973 425.431 412.758 415.933 410.22 412.023C407.683 408.112 400.07 406.436 400.07 406.436L380.404 415.375Z" fill="#2F2E41"/>
<path d="M434.962 427.666C434.962 427.666 427.349 441.074 431.79 443.867C436.231 446.661 437.499 447.778 437.499 447.778C437.499 447.778 441.306 447.219 440.671 452.247C440.037 457.275 463.509 460.069 464.778 456.158C466.047 452.247 465.413 444.426 462.875 442.191C460.337 439.957 452.725 424.314 452.725 424.314C452.725 424.314 444.478 415.934 434.962 427.666Z" fill="#2F2E41"/>
<path d="M463.051 149.397L466.636 148.948C466.636 148.948 461.645 140.859 451.985 139.39L455.376 137.374C455.376 137.374 449.484 133.666 441.869 138.433C437.865 140.938 433.218 143.896 429.799 147.619L426.301 146.866L426.976 150.011L421.081 151.741L426.466 152.362C425.723 153.844 425.236 155.416 425.021 157.026C424.812 158.637 425.322 160.257 426.444 161.543C426.444 161.543 432.543 155.032 432.862 153.881L432.064 156.759C432.064 156.759 436.048 154.871 436.527 153.144L437.749 155.543L439.519 152.568L449.625 158.098L448.562 155.125L455.151 157.458L453.358 153.716C453.358 153.716 460.038 159.119 459.456 162.35C458.874 165.58 460.301 169.066 460.301 169.066C460.301 169.066 470.462 155.567 463.051 149.397Z" fill="#2F2E41"/>
<path d="M638.739 339.289H537.146V340.36H638.739V339.289Z" fill="#3F3D56"/>
<path d="M258.993 421.778H234.504V443.344H258.993V421.778Z" fill="#CFCCE0"/>
<path d="M255.771 440.506H229.993V417.805H255.771V440.506ZM231.282 439.371H254.482V418.94H231.282L231.282 439.371Z" fill="#3F3D56"/>
<path d="M285.785 233.342L270.288 238.62L276.074 251.796L291.572 246.517L285.785 233.342Z" fill="#F2F2F2"/>
<path d="M288.771 245.478L272.458 251.034L266.367 237.165L282.68 231.609L288.771 245.478ZM272.969 250.063L287.651 245.062L282.169 232.58L267.487 237.581L272.969 250.063Z" fill="#3F3D56"/>
<path d="M570.559 393.96L565.156 380.122L549.987 384.714L555.389 398.553L570.559 393.96Z" fill="#F2F2F2"/>
<path d="M556.674 396.127L550.988 381.561L566.956 376.726L572.642 391.293L556.674 396.127ZM552.07 382.047L557.188 395.157L571.56 390.806L566.442 377.696L552.07 382.047Z" fill="#3F3D56"/>
<path d="M225.067 325.169C234.154 325.341 241.382 331.14 241.382 331.14C241.382 331.14 233.878 336.66 224.792 336.488C215.706 336.317 208.478 330.518 208.478 330.518C208.478 330.518 215.981 324.998 225.067 325.169Z" fill="#6C63FF"/>
<path d="M179.387 297.855C187.596 301.29 197.009 298.961 197.009 298.961C197.009 298.961 193.112 291.063 184.903 287.629C176.694 284.195 167.281 286.524 167.281 286.524C167.281 286.524 171.178 294.421 179.387 297.855Z" fill="#6C63FF"/>
<path d="M180.221 294.442C189.272 293.714 197.194 298.761 197.194 298.761C197.194 298.761 190.442 304.989 181.391 305.717C172.341 306.445 164.419 301.399 164.419 301.399C164.419 301.399 171.171 295.171 180.221 294.442Z" fill="#3F3D56"/>
<path d="M213.398 295.823C212.53 303.79 218.226 310.788 218.226 310.788C218.226 310.788 225.328 304.87 226.195 296.903C227.063 288.936 221.367 281.938 221.367 281.938C221.367 281.938 214.265 287.856 213.398 295.823Z" fill="#3F3D56"/>
<path d="M256.021 344.684C251.274 351.509 252.908 359.998 252.908 359.998C252.908 359.998 262.237 357.422 266.984 350.597C271.732 343.772 270.098 335.283 270.098 335.283C270.098 335.283 260.769 337.859 256.021 344.684Z" fill="#3F3D56"/>
<path d="M242.25 418.888L242.941 418.477C240.503 415.36 239.171 411.676 239.116 407.892C239.136 402.356 242.223 397.236 245.209 392.285C245.763 391.366 246.316 390.449 246.847 389.534C249.078 385.801 250.855 381.871 252.15 377.809C256.782 362.652 252.222 344.77 239.953 329.973C230.22 318.235 215.711 307.971 195.597 298.594L195.206 299.244C215.205 308.568 229.622 318.761 239.278 330.407C251.4 345.025 255.91 362.674 251.344 377.618C250.064 381.63 248.307 385.512 246.104 389.199C245.574 390.111 245.024 391.024 244.472 391.94C241.438 396.97 238.301 402.172 238.281 407.89C238.336 411.821 239.718 415.65 242.25 418.888Z" fill="#3F3D56"/>
<path d="M155.949 299.561C160.33 299.561 163.881 296.433 163.881 292.576C163.881 288.718 160.33 285.591 155.949 285.591C151.569 285.591 148.018 288.718 148.018 292.576C148.018 296.433 151.569 299.561 155.949 299.561Z" fill="#3F3D56"/>
<path d="M587.74 333.834L485.645 301.542L503.872 256.85L567.442 243.121L605.968 289.142L587.74 333.834Z" fill="#2F2E41"/>
<path d="M575.372 324.972L499.076 299.359C518.883 275.995 527.74 259.514 527.746 233.58L604.043 259.192C586.318 281.366 578.905 298.034 575.372 324.972Z" fill="#F2F2F2"/>
<path d="M581.377 262.697L541.85 249.428L541.15 251.047L580.677 264.316L581.377 262.697Z" fill="#3F3D56"/>
<path d="M578.574 269.173L539.047 255.904L538.346 257.523L577.873 270.792L578.574 269.173Z" fill="#3F3D56"/>
<path d="M575.771 275.649L536.244 262.38L535.543 263.999L575.07 277.268L575.771 275.649Z" fill="#3F3D56"/>
<path d="M572.968 282.126L533.441 268.857L532.74 270.476L572.267 283.745L572.968 282.126Z" fill="#3F3D56"/>
<path d="M570.164 288.602L530.637 275.333L529.937 276.952L569.464 290.221L570.164 288.602Z" fill="#3F3D56"/>
<path d="M567.361 295.078L527.834 281.809L527.133 283.428L566.66 296.697L567.361 295.078Z" fill="#3F3D56"/>
<path d="M564.558 301.554L525.031 288.285L524.33 289.904L563.857 303.173L564.558 301.554Z" fill="#3F3D56"/>
<path d="M561.755 308.03L522.228 294.761L521.527 296.38L561.054 309.649L561.755 308.03Z" fill="#3F3D56"/>
<path d="M585.382 339.618L483.286 307.326L503.872 256.85L546.986 292.45L605.968 289.142L585.382 339.618Z" fill="#3F3D56"/>
<path d="M533.506 323.712L482.599 307.611L495.003 277.195L496.015 277.515L483.974 307.039L533.869 322.821L533.506 323.712Z" fill="#6C63FF"/>
<path d="M515.41 291.367L500.484 286.646L498.34 291.903L513.266 296.624L515.41 291.367Z" fill="#6C63FF"/>
<path d="M346.646 439.957L266.739 439.919L267.366 400.414L307.078 416.132L347.273 401.398L346.646 439.957Z" fill="#3F3D56"/>
<path d="M284.784 422.031L273.101 421.887L273.036 426.002L284.718 426.146L284.784 422.031Z" fill="#6C63FF"/>
<path d="M347.54 401.344L307.15 419.477L267.156 401.344V400.297H347.54V401.344Z" fill="#6C63FF"/>
<path d="M579.733 251.816C580.688 249.611 575.84 245.935 568.905 243.607C561.97 241.279 555.574 241.18 554.62 243.386C553.665 245.592 558.513 249.267 565.448 251.595C572.383 253.923 578.778 254.022 579.733 251.816Z" fill="#6C63FF"/>
<path d="M590.708 184.546C588.147 183.844 585.453 183.594 582.782 183.809C580.111 184.024 577.514 184.701 575.14 185.8C572.765 186.899 570.66 188.399 568.944 190.215C567.228 192.03 565.935 194.126 565.138 196.381C561.788 205.868 570.917 240.596 570.917 240.596C570.917 240.596 600.798 216.55 604.148 207.064C605.756 202.508 605.244 197.576 602.724 193.353C600.203 189.13 595.881 185.962 590.708 184.546ZM581.77 209.859C579.943 209.358 578.325 208.392 577.121 207.082C575.918 205.772 575.182 204.177 575.008 202.499C574.833 200.821 575.228 199.134 576.142 197.654C577.056 196.173 578.447 194.964 580.141 194.18C581.835 193.396 583.755 193.072 585.658 193.249C587.561 193.426 589.362 194.095 590.833 195.174C592.304 196.252 593.378 197.69 593.921 199.306C594.464 200.922 594.45 202.643 593.882 204.252C593.505 205.321 592.892 206.313 592.08 207.174C591.267 208.034 590.269 208.744 589.145 209.265C588.02 209.785 586.79 210.106 585.525 210.208C584.259 210.31 582.983 210.191 581.77 209.859Z" fill="#6C63FF"/>
</g>
<path d="M247.233 156H145.642C144.183 156 143 157.183 143 158.642C143 160.101 144.183 161.283 145.642 161.283H247.233C248.692 161.283 249.875 160.101 249.875 158.642C249.875 157.183 248.692 156 247.233 156Z" fill="#F2F2F2"/>
<path d="M301.423 125H199.832C198.373 125 197.19 126.183 197.19 127.642C197.19 129.101 198.373 130.283 199.832 130.283H301.423C302.882 130.283 304.065 129.101 304.065 127.642C304.065 126.183 302.882 125 301.423 125Z" fill="#F2F2F2"/>
<path d="M253.255 437H151.663C150.204 437 149.021 438.183 149.021 439.642C149.021 441.101 150.204 442.283 151.663 442.283H253.255C254.713 442.283 255.896 441.101 255.896 439.642C255.896 438.183 254.713 437 253.255 437Z" fill="#F2F2F2"/>
<path d="M273.325 136H171.733C170.274 136 169.092 137.183 169.092 138.642C169.092 140.101 170.274 141.283 171.733 141.283H273.325C274.784 141.283 275.967 140.101 275.967 138.642C275.967 137.183 274.784 136 273.325 136Z" fill="#302CAF"/>
<path d="M283.36 457H181.768C180.309 457 179.127 458.183 179.127 459.642C179.127 461.1 180.309 462.283 181.768 462.283H283.36C284.819 462.283 286.002 461.1 286.002 459.642C286.002 458.183 284.819 457 283.36 457Z" fill="#302CAF"/>
<path d="M300.42 474H198.828C197.369 474 196.187 475.183 196.187 476.642C196.187 478.101 197.369 479.283 198.828 479.283H300.42C301.879 479.283 303.062 478.101 303.062 476.642C303.062 475.183 301.879 474 300.42 474Z" fill="#F2F2F2"/>
<defs>
<radialGradient id="paint0_radial" cx="0" cy="0" r="1" gradientUnits="userSpaceOnUse" gradientTransform="translate(1109 1212.5) rotate(-132.641) scale(1417.18 1753.19)">
<stop stop-color="#C33AFC"/>
<stop offset="1" stop-color="#1E3779"/>
</radialGradient>
<clipPath id="clip0">
<rect width="490.722" height="322" fill="white" transform="translate(148.018 136)"/>
</clipPath>
</defs>
</svg>
