<svg width="1440" height="820" viewBox="0 0 1440 820" fill="none" xmlns="http://www.w3.org/2000/svg">
<rect width="1440" height="820" fill="#CD4953"/>
<g clip-path="url(#clip0)">
<path d="M842.186 209.093L836.267 238.566L840.824 239.591L835.981 263.706L853.069 233.945L846.994 232.578L857.374 212.51L842.186 209.093Z" fill="white"/>
<path d="M863.378 266.191L871.991 237.471L867.551 235.979L874.598 212.481L854.842 240.331L860.762 242.32L848.578 261.218L863.378 266.191Z" fill="white"/>
<path d="M886.704 211.832L877.651 240.399L882.067 241.967L874.659 265.341L894.841 237.835L888.952 235.744L901.425 217.059L886.704 211.832Z" fill="white"/>
<path d="M942.616 235.632C942.616 230.628 939.088 226.2 934.48 226.2H919V255H925.804V240.564L928.612 244.848L936.748 244.812C936.928 244.704 937 244.596 937.108 244.56C940.888 242.832 942.616 240.348 942.616 235.632ZM936.136 235.884C936.136 237.144 934.984 238.836 933.688 238.836H925.768V232.896H933.4C934.948 232.896 936.136 234.3 936.136 235.884ZM970.341 240.564C970.341 232.32 965.229 226.2 957.561 226.2C949.749 226.2 944.312 232.212 944.312 240.636C944.312 249.132 949.641 255 957.417 255C965.193 255 970.341 248.916 970.341 240.564ZM964.005 240.636C964.005 245.1 961.305 248.664 957.417 248.664C953.673 248.664 951.045 245.208 951.045 240.744C951.045 235.992 953.564 232.644 957.525 232.644C961.377 232.644 964.005 236.208 964.005 240.636ZM1004.04 226.2H994.424L988.412 244.2L982.436 226.2H972.824V255H980.024V240.6L984.812 255H992.012L996.836 240.6V255H1004.04V226.2ZM1032.95 240.564C1032.95 232.32 1027.84 226.2 1020.17 226.2C1012.36 226.2 1006.93 232.212 1006.93 240.636C1006.93 249.132 1012.25 255 1020.03 255C1027.81 255 1032.95 248.916 1032.95 240.564ZM1026.62 240.636C1026.62 245.1 1023.92 248.664 1020.03 248.664C1016.29 248.664 1013.66 245.208 1013.66 240.744C1013.66 235.992 1016.18 232.644 1020.14 232.644C1023.99 232.644 1026.62 236.208 1026.62 240.636ZM1059.38 240.744C1059.38 232.248 1054.27 226.2 1046.63 226.2H1035.44V255H1047.75C1048.22 255 1049.23 254.82 1050.85 254.424C1055.89 253.272 1059.38 247.368 1059.38 240.744ZM1052.32 239.016C1052.32 245.172 1050.56 248.232 1047.03 248.232H1042.6V232.968H1047.93C1048.61 232.968 1049.33 233.328 1050.16 234.084C1052.18 235.92 1052.32 238.836 1052.32 239.016ZM1087.83 240.564C1087.83 232.32 1082.72 226.2 1075.05 226.2C1067.24 226.2 1061.8 232.212 1061.8 240.636C1061.8 249.132 1067.13 255 1074.91 255C1082.68 255 1087.83 248.916 1087.83 240.564ZM1081.5 240.636C1081.5 245.1 1078.8 248.664 1074.91 248.664C1071.16 248.664 1068.54 245.208 1068.54 240.744C1068.54 235.992 1071.06 232.644 1075.02 232.644C1078.87 232.644 1081.5 236.208 1081.5 240.636ZM1108.06 244.812C1108.24 244.704 1108.32 244.596 1108.42 244.56C1112.2 242.832 1113.93 240.348 1113.93 235.632C1113.93 230.628 1110.4 226.2 1105.8 226.2H1090.32V255H1097.12V240.564L1106.59 255H1114.33L1108.06 244.812ZM1107.45 235.884C1107.45 237.144 1106.3 238.836 1105 238.836H1097.08V232.896H1104.72C1106.26 232.896 1107.45 234.3 1107.45 235.884ZM1142.96 240.564C1142.96 232.32 1137.85 226.2 1130.18 226.2C1122.37 226.2 1116.93 232.212 1116.93 240.636C1116.93 249.132 1122.26 255 1130.03 255C1137.81 255 1142.96 248.916 1142.96 240.564ZM1136.62 240.636C1136.62 245.1 1133.92 248.664 1130.03 248.664C1126.29 248.664 1123.66 245.208 1123.66 240.744C1123.66 235.992 1126.18 232.644 1130.14 232.644C1133.99 232.644 1136.62 236.208 1136.62 240.636ZM1151.16 248.268H1144.28V255H1151.16V248.268ZM1178.49 240.744C1178.49 232.248 1173.37 226.2 1165.74 226.2H1154.55V255H1166.86C1167.33 255 1168.33 254.82 1169.95 254.424C1174.99 253.272 1178.49 247.368 1178.49 240.744ZM1171.43 239.016C1171.43 245.172 1169.67 248.232 1166.14 248.232H1161.71V232.968H1167.04C1167.72 232.968 1168.44 233.328 1169.27 234.084C1171.29 235.92 1171.43 238.836 1171.43 239.016ZM1181.02 226.2V232.932H1199.06L1202.26 226.2H1181.02ZM1199.09 237.144H1181.02V243.876H1199.09V237.144ZM1200.79 248.268H1180.91V255H1200.79V248.268ZM1222.88 226.2L1216.91 244.2L1210.9 226.2H1203.7L1213.31 255H1220.51L1230.08 226.2H1222.88Z" fill="white"/>
</g>
<path d="M164.844 126.072L108.28 467.474L151.826 479.349L105.546 758.678L268.859 413.947L210.798 398.114L309.997 165.654L164.844 126.072Z" fill="url(#paint0_linear)"/>
<path d="M367.378 787.457L449.693 454.787L407.261 437.506L474.61 165.321L285.804 487.913L342.38 510.954L225.938 729.855L367.378 787.457Z" fill="url(#paint1_linear)"/>
<path d="M590.31 157.802L503.784 488.709L545.991 506.873L475.198 777.616L668.072 459.01L611.796 434.791L731 218.35L590.31 157.802Z" fill="url(#paint2_linear)"/>
<path d="M833.582 386H844.18C850.176 386 853.116 382.945 853.116 378.866C853.116 374.903 850.304 372.577 847.517 372.436V372.18C850.074 371.58 852.094 369.79 852.094 366.607C852.094 362.707 849.281 359.818 843.605 359.818H833.582V386ZM838.325 382.037V374.366H843.554C846.482 374.366 848.297 376.156 848.297 378.496C848.297 380.58 846.865 382.037 843.426 382.037H838.325ZM838.325 370.953V363.73H843.119C845.906 363.73 847.351 365.2 847.351 367.22C847.351 369.521 845.484 370.953 843.017 370.953H838.325ZM865.731 386.384C870.308 386.384 873.453 384.146 874.271 380.733L869.95 380.247C869.324 381.909 867.789 382.778 865.795 382.778C862.804 382.778 860.822 380.81 860.784 377.447H874.463V376.028C874.463 369.138 870.321 366.108 865.488 366.108C859.863 366.108 856.194 370.237 856.194 376.297C856.194 382.459 859.812 386.384 865.731 386.384ZM860.797 374.328C860.937 371.822 862.791 369.713 865.552 369.713C868.211 369.713 870.001 371.656 870.027 374.328H860.797ZM878.378 386H883.006V374.06C883.006 371.643 884.616 370.007 886.611 370.007C888.567 370.007 889.909 371.324 889.909 373.344V386H894.447V373.753C894.447 371.541 895.764 370.007 898.001 370.007C899.868 370.007 901.351 371.107 901.351 373.536V386H905.991V372.82C905.991 368.435 903.46 366.108 899.855 366.108C897.004 366.108 894.831 367.514 893.962 369.7H893.757C893.003 367.476 891.098 366.108 888.452 366.108C885.818 366.108 883.849 367.463 883.031 369.7H882.801V366.364H878.378V386ZM922.588 373.19H910.801V377H922.588V373.19ZM944.996 366.364H940.074L935.548 380.95H935.344L930.831 366.364H925.896L932.889 386H938.003L944.996 366.364ZM948.198 386H952.826V366.364H948.198V386ZM950.525 363.577C951.995 363.577 953.197 362.452 953.197 361.071C953.197 359.678 951.995 358.553 950.525 358.553C949.042 358.553 947.84 359.678 947.84 361.071C947.84 362.452 949.042 363.577 950.525 363.577ZM962.213 374.494C962.213 371.656 963.926 370.02 966.368 370.02C968.758 370.02 970.19 371.592 970.19 374.213V386H974.818V373.497C974.831 368.793 972.146 366.108 968.093 366.108C965.153 366.108 963.133 367.514 962.238 369.7H962.008V366.364H957.585V386H962.213V374.494ZM986.809 386.345C990.184 386.345 991.706 384.338 992.434 382.906H992.716V386H997.267V359.818H992.626V369.611H992.434C991.731 368.192 990.287 366.108 986.822 366.108C982.284 366.108 978.717 369.662 978.717 376.207C978.717 382.676 982.181 386.345 986.809 386.345ZM988.1 382.548C985.045 382.548 983.434 379.864 983.434 376.182C983.434 372.526 985.02 369.905 988.1 369.905C991.079 369.905 992.716 372.372 992.716 376.182C992.716 379.991 991.054 382.548 988.1 382.548ZM1010.76 386.384C1016.52 386.384 1020.17 382.331 1020.17 376.259C1020.17 370.173 1016.52 366.108 1010.76 366.108C1005.01 366.108 1001.35 370.173 1001.35 376.259C1001.35 382.331 1005.01 386.384 1010.76 386.384ZM1010.79 382.676C1007.61 382.676 1006.05 379.838 1006.05 376.246C1006.05 372.653 1007.61 369.777 1010.79 369.777C1013.92 369.777 1015.48 372.653 1015.48 376.246C1015.48 379.838 1013.92 382.676 1010.79 382.676ZM1025.25 375.325C1025.25 381.705 1026.95 387.01 1030.31 391.561H1034.67C1032.08 388.186 1030.07 381.385 1030.07 375.325C1030.07 369.253 1032.08 362.452 1034.67 359.077H1030.31C1026.95 363.628 1025.25 368.946 1025.25 375.325ZM1043.92 386.396C1047 386.396 1048.84 384.952 1049.68 383.303H1049.84V386H1054.29V372.858C1054.29 367.668 1050.06 366.108 1046.31 366.108C1042.18 366.108 1039.01 367.949 1037.99 371.528L1042.31 372.142C1042.77 370.8 1044.07 369.649 1046.34 369.649C1048.48 369.649 1049.66 370.749 1049.66 372.679V372.756C1049.66 374.085 1048.27 374.149 1044.8 374.52C1040.99 374.929 1037.35 376.067 1037.35 380.49C1037.35 384.351 1040.17 386.396 1043.92 386.396ZM1045.12 382.996C1043.19 382.996 1041.81 382.114 1041.81 380.413C1041.81 378.636 1043.36 377.895 1045.43 377.601C1046.64 377.435 1049.07 377.128 1049.67 376.642V378.956C1049.67 381.142 1047.91 382.996 1045.12 382.996ZM1067.2 375.325C1067.2 368.946 1065.5 363.641 1062.14 359.089H1057.78C1060.37 362.464 1062.38 369.266 1062.38 375.325C1062.38 381.398 1060.37 388.199 1057.78 391.574H1062.14C1065.5 387.023 1067.2 381.705 1067.2 375.325Z" fill="white"/>
<path d="M831 460C831 457.239 833.239 455 836 455H1171V535H836C833.239 535 831 532.761 831 530V460Z" fill="white"/>
<path d="M861.267 487.455V496.844C861.267 498.818 859.903 500.239 857.688 500.239C855.479 500.239 854.108 498.818 854.108 496.844V487.455H851.913V497.021C851.913 500.075 854.2 502.241 857.688 502.241C861.175 502.241 863.469 500.075 863.469 497.021V487.455H861.267ZM874.664 493.754C874.223 492.057 872.895 490.949 870.537 490.949C868.073 490.949 866.326 492.249 866.326 494.18C866.326 495.729 867.263 496.759 869.309 497.213L871.155 497.618C872.206 497.852 872.696 498.321 872.696 499.003C872.696 499.848 871.794 500.509 870.402 500.509C869.131 500.509 868.314 499.962 868.059 498.889L866.006 499.202C866.361 501.134 867.966 502.22 870.417 502.22C873.052 502.22 874.877 500.821 874.877 498.847C874.877 497.305 873.897 496.354 871.894 495.892L870.161 495.494C868.961 495.21 868.442 494.805 868.449 494.067C868.442 493.229 869.351 492.632 870.559 492.632C871.88 492.632 872.491 493.364 872.739 494.095L874.664 493.754ZM881.913 502.22C884.293 502.22 885.976 501.048 886.459 499.273L884.449 498.911C884.065 499.94 883.142 500.466 881.935 500.466C880.117 500.466 878.895 499.287 878.838 497.185H886.594V496.432C886.594 492.49 884.236 490.949 881.764 490.949C878.725 490.949 876.722 493.264 876.722 496.616C876.722 500.004 878.696 502.22 881.913 502.22ZM878.845 495.594C878.93 494.045 880.053 492.703 881.778 492.703C883.426 492.703 884.506 493.925 884.513 495.594H878.845ZM888.95 502H891.074V495.338C891.074 493.911 892.174 492.881 893.68 492.881C894.12 492.881 894.618 492.959 894.788 493.009V490.977C894.575 490.949 894.156 490.928 893.886 490.928C892.608 490.928 891.514 491.652 891.116 492.824H891.003V491.091H888.95V502ZM898.749 495.523C898.749 493.783 899.815 492.788 901.292 492.788C902.734 492.788 903.607 493.733 903.607 495.317V502H905.731V495.061C905.731 492.362 904.247 490.949 902.016 490.949C900.376 490.949 899.303 491.709 898.799 492.866H898.664V491.091H896.626V502H898.749V495.523ZM911.754 502.241C913.558 502.241 914.573 501.325 914.978 500.509H915.063V502H917.137V494.756C917.137 491.581 914.637 490.949 912.904 490.949C910.93 490.949 909.112 491.744 908.401 493.733L910.397 494.188C910.71 493.413 911.505 492.668 912.933 492.668C914.303 492.668 915.006 493.385 915.006 494.621V494.67C915.006 495.445 914.211 495.43 912.251 495.658C910.184 495.899 908.068 496.439 908.068 498.918C908.068 501.062 909.68 502.241 911.754 502.241ZM912.215 500.537C911.015 500.537 910.149 499.997 910.149 498.946C910.149 497.81 911.157 497.405 912.386 497.241C913.075 497.149 914.708 496.964 915.014 496.659V498.065C915.014 499.358 913.984 500.537 912.215 500.537ZM919.966 502H922.089V495.274C922.089 493.804 923.119 492.781 924.326 492.781C925.505 492.781 926.322 493.562 926.322 494.749V502H928.439V495.047C928.439 493.733 929.241 492.781 930.626 492.781C931.748 492.781 932.672 493.406 932.672 494.884V502H934.795V494.685C934.795 492.192 933.403 490.949 931.429 490.949C929.859 490.949 928.68 491.702 928.155 492.866H928.041C927.565 491.673 926.564 490.949 925.108 490.949C923.666 490.949 922.593 491.666 922.139 492.866H922.004V491.091H919.966V502ZM942.343 502.22C944.722 502.22 946.406 501.048 946.889 499.273L944.879 498.911C944.495 499.94 943.572 500.466 942.364 500.466C940.546 500.466 939.325 499.287 939.268 497.185H947.024V496.432C947.024 492.49 944.666 490.949 942.194 490.949C939.154 490.949 937.151 493.264 937.151 496.616C937.151 500.004 939.126 502.22 942.343 502.22ZM939.275 495.594C939.36 494.045 940.482 492.703 942.208 492.703C943.856 492.703 944.935 493.925 944.943 495.594H939.275Z" fill="#555760"/>
<path d="M1014.23 568.727C1014.23 564.075 1011.45 561.256 1007.68 561.256C1003.91 561.256 1001.13 564.075 1001.13 568.727C1001.13 573.372 1003.91 576.199 1007.68 576.199C1011.45 576.199 1014.23 573.379 1014.23 568.727ZM1012.06 568.727C1012.06 572.271 1010.18 574.196 1007.68 574.196C1005.18 574.196 1003.31 572.271 1003.31 568.727C1003.31 565.183 1005.18 563.259 1007.68 563.259C1010.18 563.259 1012.06 565.183 1012.06 568.727ZM1023.71 571.476C1023.72 573.33 1022.34 574.21 1021.15 574.21C1019.83 574.21 1018.92 573.259 1018.92 571.774V565.091H1016.8V572.03C1016.8 574.736 1018.28 576.142 1020.38 576.142C1022.02 576.142 1023.13 575.276 1023.64 574.111H1023.75V576H1025.84V565.091H1023.71V571.476Z" fill="white"/>
<path d="M1171 455H1246C1248.76 455 1251 457.239 1251 460V530C1251 532.761 1248.76 535 1246 535H1171V455Z" fill="#B4363F"/>
<path d="M1199 496.5L1217.26 496.5L1208.87 504.885L1211 507L1223 495L1211 483L1208.89 485.115L1217.26 493.5L1199 493.5L1199 496.5Z" fill="white"/>
<path d="M831 605C831 602.239 833.239 600 836 600H1171V680H836C833.239 680 831 677.761 831 675V605Z" fill="white"/>
<path d="M861.267 632.455V641.844C861.267 643.818 859.903 645.239 857.688 645.239C855.479 645.239 854.108 643.818 854.108 641.844V632.455H851.913V642.021C851.913 645.075 854.2 647.241 857.688 647.241C861.175 647.241 863.469 645.075 863.469 642.021V632.455H861.267ZM874.664 638.754C874.223 637.057 872.895 635.949 870.537 635.949C868.073 635.949 866.326 637.249 866.326 639.18C866.326 640.729 867.263 641.759 869.309 642.213L871.155 642.618C872.206 642.852 872.696 643.321 872.696 644.003C872.696 644.848 871.794 645.509 870.402 645.509C869.131 645.509 868.314 644.962 868.059 643.889L866.006 644.202C866.361 646.134 867.966 647.22 870.417 647.22C873.052 647.22 874.877 645.821 874.877 643.847C874.877 642.305 873.897 641.354 871.894 640.892L870.161 640.494C868.961 640.21 868.442 639.805 868.449 639.067C868.442 638.229 869.351 637.632 870.559 637.632C871.88 637.632 872.491 638.364 872.739 639.095L874.664 638.754ZM881.913 647.22C884.293 647.22 885.976 646.048 886.459 644.273L884.449 643.911C884.065 644.94 883.142 645.466 881.935 645.466C880.117 645.466 878.895 644.287 878.838 642.185H886.594V641.432C886.594 637.49 884.236 635.949 881.764 635.949C878.725 635.949 876.722 638.264 876.722 641.616C876.722 645.004 878.696 647.22 881.913 647.22ZM878.845 640.594C878.93 639.045 880.053 637.703 881.778 637.703C883.426 637.703 884.506 638.925 884.513 640.594H878.845ZM888.95 647H891.074V640.338C891.074 638.911 892.174 637.881 893.68 637.881C894.12 637.881 894.618 637.959 894.788 638.009V635.977C894.575 635.949 894.156 635.928 893.886 635.928C892.608 635.928 891.514 636.652 891.116 637.824H891.003V636.091H888.95V647ZM898.749 640.523C898.749 638.783 899.815 637.788 901.292 637.788C902.734 637.788 903.607 638.733 903.607 640.317V647H905.731V640.061C905.731 637.362 904.247 635.949 902.016 635.949C900.376 635.949 899.303 636.709 898.799 637.866H898.664V636.091H896.626V647H898.749V640.523ZM911.754 647.241C913.558 647.241 914.573 646.325 914.978 645.509H915.063V647H917.137V639.756C917.137 636.581 914.637 635.949 912.904 635.949C910.93 635.949 909.112 636.744 908.401 638.733L910.397 639.188C910.71 638.413 911.505 637.668 912.933 637.668C914.303 637.668 915.006 638.385 915.006 639.621V639.67C915.006 640.445 914.211 640.43 912.251 640.658C910.184 640.899 908.068 641.439 908.068 643.918C908.068 646.062 909.68 647.241 911.754 647.241ZM912.215 645.537C911.015 645.537 910.149 644.997 910.149 643.946C910.149 642.81 911.157 642.405 912.386 642.241C913.075 642.149 914.708 641.964 915.014 641.659V643.065C915.014 644.358 913.984 645.537 912.215 645.537ZM919.966 647H922.089V640.274C922.089 638.804 923.119 637.781 924.326 637.781C925.505 637.781 926.322 638.562 926.322 639.749V647H928.439V640.047C928.439 638.733 929.241 637.781 930.626 637.781C931.748 637.781 932.672 638.406 932.672 639.884V647H934.795V639.685C934.795 637.192 933.403 635.949 931.429 635.949C929.859 635.949 928.68 636.702 928.155 637.866H928.041C927.565 636.673 926.564 635.949 925.108 635.949C923.666 635.949 922.593 636.666 922.139 637.866H922.004V636.091H919.966V647ZM942.343 647.22C944.722 647.22 946.406 646.048 946.889 644.273L944.879 643.911C944.495 644.94 943.572 645.466 942.364 645.466C940.546 645.466 939.325 644.287 939.268 642.185H947.024V641.432C947.024 637.49 944.666 635.949 942.194 635.949C939.154 635.949 937.151 638.264 937.151 641.616C937.151 645.004 939.126 647.22 942.343 647.22ZM939.275 640.594C939.36 639.045 940.482 637.703 942.208 637.703C943.856 637.703 944.935 638.925 944.943 640.594H939.275ZM964.687 637.05H966.938C966.448 634.216 964.026 632.256 960.887 632.256C957.123 632.256 954.374 635.089 954.374 639.734C954.374 644.337 957.045 647.199 960.987 647.199C964.516 647.199 967.038 644.884 967.038 641.212V639.557H961.32V641.368H964.914C964.864 643.712 963.316 645.196 960.987 645.196C958.423 645.196 956.555 643.257 956.555 639.72C956.555 636.197 958.437 634.259 960.901 634.259C962.833 634.259 964.14 635.324 964.687 637.05ZM970.337 647H972.46V636.091H970.337V647ZM971.409 634.408C972.141 634.408 972.752 633.839 972.752 633.143C972.752 632.447 972.141 631.872 971.409 631.872C970.671 631.872 970.067 632.447 970.067 633.143C970.067 633.839 970.671 634.408 971.409 634.408ZM980.41 636.091H978.172V633.477H976.049V636.091H974.451V637.795H976.049V644.237C976.042 646.219 977.554 647.178 979.231 647.142C979.905 647.135 980.36 647.007 980.608 646.915L980.225 645.161C980.083 645.189 979.82 645.253 979.479 645.253C978.79 645.253 978.172 645.026 978.172 643.797V637.795H980.41V636.091ZM983.163 647H985.358V640.658H992.609V647H994.811V632.455H992.609V638.776H985.358V632.455H983.163V647ZM1004.75 642.476C1004.75 644.33 1003.38 645.21 1002.18 645.21C1000.87 645.21 999.96 644.259 999.96 642.774V636.091H997.837V643.03C997.837 645.736 999.321 647.142 1001.42 647.142C1003.06 647.142 1004.17 646.276 1004.68 645.111H1004.79V647H1006.88V636.091H1004.75V642.476ZM1009.9 647H1011.98V645.303H1012.15C1012.54 645.999 1013.32 647.213 1015.31 647.213C1017.95 647.213 1019.87 645.097 1019.87 641.567C1019.87 638.03 1017.92 635.949 1015.29 635.949C1013.26 635.949 1012.53 637.185 1012.15 637.859H1012.03V632.455H1009.9V647ZM1011.98 641.545C1011.98 639.266 1012.98 637.753 1014.83 637.753C1016.76 637.753 1017.72 639.379 1017.72 641.545C1017.72 643.733 1016.73 645.402 1014.83 645.402C1013.01 645.402 1011.98 643.839 1011.98 641.545Z" fill="#555760"/>
<path d="M1171 600H1246C1248.76 600 1251 602.239 1251 605V675C1251 677.761 1248.76 680 1246 680H1171V600Z" fill="#B4363F"/>
<path d="M1199 641.5L1217.26 641.5L1208.87 649.885L1211 652L1223 640L1211 628L1208.89 630.115L1217.26 638.5L1199 638.5L1199 641.5Z" fill="white"/>
<line x1="1040" y1="569.5" x2="1164" y2="568.467" stroke="white"/>
<line x1="864.996" y1="570.533" x2="988.996" y2="569.5" stroke="white"/>
<defs>
<linearGradient id="paint0_linear" x1="393.747" y1="-384.221" x2="-51.7014" y2="784.69" gradientUnits="userSpaceOnUse">
<stop stop-color="white"/>
<stop offset="1" stop-color="white" stop-opacity="0"/>
</linearGradient>
<linearGradient id="paint1_linear" x1="296.658" y1="758.656" x2="732.581" y2="-243.02" gradientUnits="userSpaceOnUse">
<stop stop-color="white" stop-opacity="0"/>
<stop offset="1" stop-color="white"/>
</linearGradient>
<linearGradient id="paint2_linear" x1="853.971" y1="-548.615" x2="312.67" y2="707.565" gradientUnits="userSpaceOnUse">
<stop stop-color="white"/>
<stop offset="1" stop-color="white" stop-opacity="0"/>
</linearGradient>
<clipPath id="clip0">
<rect width="457" height="76" fill="white" transform="translate(820 199)"/>
</clipPath>
</defs>
</svg>
